<?xml version="1.0" encoding="iso-8859-1"?>
<!-- Generator: Adobe Illustrator 19.0.0, SVG Export Plug-In . SVG Version: 6.00 Build 0)  -->
<svg version="1.1" id="Layer_1" xmlns="http://www.w3.org/2000/svg" xmlns:xlink="http://www.w3.org/1999/xlink" x="0px" y="0px"
	 viewBox="0 0 511.999 511.999" style="enable-background:new 0 0 511.999 511.999;" xml:space="preserve">
<polygon style="fill:#1F717A;" points="292.516,55.297 219.481,55.297 108.62,277.017 98.925,318.912 66.725,360.808 
	58.704,376.848 58.704,421.859 255.999,489.494 453.293,421.859 453.293,376.848 445.273,360.81 413.073,318.916 403.379,277.021 
	"/>
<g>
	<polygon style="fill:#FFB033;" points="92.834,347.081 132.823,368.105 125.185,323.577 157.537,292.041 112.828,285.545 
		108.62,277.017 66.725,360.808 	"/>
	<path style="fill:#FFB033;" d="M295.987,75.534l-3.471-20.237l-21.421-42.841c-8.303-16.607-21.891-16.607-30.195,0L219.48,55.297
		l-3.47,20.237l39.989-21.024L295.987,75.534z"/>
	<polygon style="fill:#FFB033;" points="379.175,368.105 419.163,347.081 445.272,360.808 403.377,277.017 399.17,285.545 
		354.46,292.041 386.812,323.577 	"/>
	<polygon style="fill:#FFB033;" points="255.999,301.295 275.992,341.808 320.702,348.305 288.35,379.84 295.987,424.369 
		255.999,403.345 216.01,424.369 223.647,379.84 191.295,348.305 236.005,341.808 	"/>
	<polygon style="fill:#FFB033;" points="255.999,126.878 275.992,167.391 320.702,173.887 288.35,205.423 295.987,249.951 
		255.999,228.928 216.01,249.951 223.647,205.423 211.701,193.779 206.547,188.754 191.295,173.887 236.005,167.391 	"/>
</g>
<path style="fill:#2EAAB6;" d="M498.133,371.92c-10.987-10.986-28.798-10.986-39.784,0c-55.788,55.788-129.069,83.67-202.349,83.67
	c-73.281,0-146.561-27.882-202.349-83.67c-10.987-10.986-28.798-10.986-39.784,0s-10.986,28.798,0,39.784
	c64.674,64.677,150.665,100.296,242.132,100.296s177.458-35.618,242.134-100.295C509.119,400.718,509.119,382.906,498.133,371.92z"
	/>
<g>
</g>
<g>
</g>
<g>
</g>
<g>
</g>
<g>
</g>
<g>
</g>
<g>
</g>
<g>
</g>
<g>
</g>
<g>
</g>
<g>
</g>
<g>
</g>
<g>
</g>
<g>
</g>
<g>
</g>
</svg>
