<?xml version="1.0" encoding="iso-8859-1"?>
<!-- Generator: Adobe Illustrator 19.0.0, SVG Export Plug-In . SVG Version: 6.00 Build 0)  -->
<svg xmlns="http://www.w3.org/2000/svg" xmlns:xlink="http://www.w3.org/1999/xlink" version="1.1" id="Layer_1" x="0px" y="0px" viewBox="0 0 512.016 512.016" style="enable-background:new 0 0 512.016 512.016;" xml:space="preserve">
<rect x="4.208" y="50.616" style="fill:#FFFFFF;" width="377.6" height="270.2"/>
<path style="fill:#CFDCE5;" d="M377.264,57.832v259.776H8V57.832H377.264 M385.264,49.832H0v275.776h385.264V49.832z"/>
<path style="fill:#415E72;" d="M0,60.008v-48c0.04-6.608,5.392-11.96,12-12h361.2c6.624,0.016,12,5.376,12.04,12v48H0z"/>
<polygon style="fill:#FFFFFF;" points="354.888,46.56 129.072,46.56 150.68,13.448 354.888,13.448 "/>
<g>
	<circle style="fill:#8BA0AE;" cx="40.56" cy="29.56" r="10.24"/>
	<circle style="fill:#8BA0AE;" cx="67.704" cy="29.56" r="10.24"/>
	<circle style="fill:#8BA0AE;" cx="94.856" cy="29.56" r="10.24"/>
</g>
<g>
	<path style="fill:#415E72;" d="M162.2,23.952l1.424,6.176c0.312,1.456,0.616,2.936,0.864,4.416h0.056   c0.28-1.48,0.736-2.992,1.128-4.384l1.76-6.208h2.8l1.704,6.04c0.424,1.6,0.8,3.072,1.096,4.552h0.056   c0.216-1.48,0.528-2.96,0.888-4.552l1.512-6.04h3.376l-4.272,13.6h-3.2l-1.6-5.544c-0.424-1.432-0.768-2.888-1.04-4.36h-0.056   c-0.256,1.472-0.6,2.928-1.032,4.36l-1.744,5.528h-3.2l-4-13.6h3.52L162.2,23.952z"/>
	<path style="fill:#415E72;" d="M183.616,23.952l1.424,6.176c0.312,1.456,0.616,2.936,0.864,4.416h0.064   c0.272-1.48,0.728-2.992,1.12-4.384l1.76-6.208h2.8l1.704,6.04c0.424,1.6,0.8,3.072,1.096,4.552h0.056   c0.216-1.48,0.528-2.96,0.888-4.552l1.512-6.04h3.384L196,37.552h-3.2l-1.6-5.544c-0.424-1.432-0.768-2.888-1.04-4.36h-0.056   c-0.256,1.472-0.6,2.928-1.032,4.36l-1.736,5.536h-3.2l-4-13.6h3.52L183.616,23.952z"/>
	<path style="fill:#415E72;" d="M205.04,23.952l1.424,6.176c0.312,1.456,0.616,2.936,0.864,4.416h0.064   c0.272-1.48,0.728-2.992,1.12-4.384l1.76-6.208h2.8l1.704,6.04c0.424,1.6,0.8,3.072,1.096,4.552h0.056   c0.216-1.48,0.528-2.96,0.888-4.552l1.512-6.04h3.384l-4.28,13.6h-3.2l-1.6-5.544c-0.424-1.432-0.768-2.888-1.04-4.36h-0.072   c-0.256,1.472-0.6,2.928-1.032,4.36l-1.736,5.536h-3.2l-4-13.6L205.04,23.952z"/>
	<path style="fill:#415E72;" d="M222.28,35.664c-0.064-1.152,0.824-2.144,1.984-2.208c0.048,0,0.096,0,0.144,0   c1.216,0,2.208,0.992,2.208,2.208s-0.992,2.208-2.208,2.208l0,0c-1.16,0.016-2.112-0.904-2.128-2.064   C222.28,35.76,222.28,35.712,222.28,35.664z"/>
	<rect y="316.008" style="fill:#415E72;" width="385.28" height="9.608"/>
	<polygon style="fill:#415E72;" points="257.864,319.488 127.4,319.488 145.464,305.76 239.808,305.76  "/>
	<rect x="126.736" y="236.224" style="fill:#415E72;" width="385.28" height="275.784"/>
</g>
<path style="fill:#CFDCE5;" d="M126.736,246.408v-47.96c0.04-6.624,5.416-11.984,12.04-12h361.16c6.64,0.008,12.024,5.368,12.064,12  v47.96H126.736z"/>
<polygon style="fill:#FFFFFF;" points="481.616,232.952 255.808,232.952 277.408,199.848 481.616,199.848 "/>
<g>
	<circle style="fill:#8BA0AE;" cx="167.296" cy="215.952" r="10.24"/>
	<circle style="fill:#8BA0AE;" cx="194.44" cy="215.952" r="10.24"/>
	<circle style="fill:#8BA0AE;" cx="221.584" cy="215.952" r="10.24"/>
</g>
<g>
	<path style="fill:#415E72;" d="M288.936,210.344l1.424,6.176c0.312,1.456,0.616,2.936,0.864,4.416h0.056   c0.28-1.48,0.736-2.992,1.128-4.384l1.76-6.208h2.8l1.704,6.04c0.424,1.6,0.8,3.072,1.096,4.552h0.056   c0.216-1.48,0.528-2.96,0.888-4.552l1.512-6.04h3.376l-4.272,13.6h-3.2l-1.6-5.536c-0.424-1.432-0.768-2.888-1.04-4.36h-0.056   c-0.256,1.472-0.6,2.928-1.032,4.36l-1.736,5.536h-3.2l-4-13.6H288.936z"/>
	<path style="fill:#415E72;" d="M310.352,210.344l1.424,6.176c0.312,1.456,0.616,2.936,0.864,4.416h0.064   c0.272-1.48,0.728-2.992,1.12-4.384l1.76-6.208h2.8l1.704,6.04c0.424,1.6,0.8,3.072,1.096,4.552h0.056   c0.216-1.48,0.528-2.96,0.888-4.552l1.512-6.04h3.384l-4.28,13.6h-3.2l-1.6-5.536c-0.424-1.432-0.768-2.888-1.04-4.36h-0.056   c-0.256,1.472-0.6,2.928-1.032,4.36l-1.736,5.536h-3.2l-4-13.6H310.352z"/>
	<path style="fill:#415E72;" d="M331.776,210.344l1.424,6.176c0.312,1.456,0.616,2.936,0.864,4.416h0.064   c0.272-1.48,0.728-2.992,1.12-4.384l1.76-6.208h2.8l1.704,6.04c0.424,1.6,0.8,3.072,1.096,4.552h0.056   c0.216-1.48,0.528-2.96,0.888-4.552l1.512-6.04h3.384l-4.28,13.6h-3.2l-1.6-5.536c-0.424-1.432-0.768-2.888-1.04-4.36h-0.056   c-0.256,1.472-0.6,2.928-1.032,4.36l-1.736,5.536h-3.2l-4-13.6H331.776z"/>
	<path style="fill:#415E72;" d="M349.016,222.056c-0.064-1.152,0.824-2.144,1.984-2.208c0.048,0,0.096,0,0.144,0   c1.216,0,2.208,0.992,2.208,2.208c0,1.216-0.992,2.208-2.208,2.208l0,0c-1.16,0.016-2.112-0.904-2.128-2.064   C349.016,222.152,349.016,222.104,349.016,222.056z"/>
</g>
<g>
	<rect x="126.736" y="502.4" style="fill:#CFDCE5;" width="385.28" height="9.608"/>
	<polygon style="fill:#CFDCE5;" points="384.6,505.888 254.136,505.888 272.192,492.152 366.536,492.152  "/>
</g>
<g>
	<polygon style="fill:#415E72;" points="331.352,39.504 329.2,37.4 336.648,29.752 328.76,22.064 330.864,19.912 340.904,29.696     "/>
	<rect x="317.256" y="28.216" style="fill:#415E72;" width="19.872" height="3.008"/>
	<polygon style="fill:#415E72;" points="458.088,225.896 455.936,223.792 463.376,216.144 455.488,208.456 457.592,206.304    467.632,216.088  "/>
	<rect x="444" y="214.608" style="fill:#415E72;" width="19.872" height="3.008"/>
</g>
<g>
</g>
<g>
</g>
<g>
</g>
<g>
</g>
<g>
</g>
<g>
</g>
<g>
</g>
<g>
</g>
<g>
</g>
<g>
</g>
<g>
</g>
<g>
</g>
<g>
</g>
<g>
</g>
<g>
</g>
</svg>
