<?xml version="1.0" encoding="iso-8859-1"?>
<!-- Generator: Adobe Illustrator 19.1.0, SVG Export Plug-In . SVG Version: 6.00 Build 0)  -->
<svg version="1.1" id="Capa_1" xmlns="http://www.w3.org/2000/svg" xmlns:xlink="http://www.w3.org/1999/xlink" x="0px" y="0px"
	 viewBox="0 0 470 470" style="enable-background:new 0 0 470 470;" xml:space="preserve">
<g>
	<path style="fill:#2EAAB6;" d="M365,417.96V185H188.125H107.5H105v232.96C183.448,365.785,286.552,365.786,365,417.96z"/>
	<path style="fill:#3DE2F3;" d="M292.5,15c-18.197,0-36.049,2.997-53.101,8.892c-1.107,0.697-2.423,1.094-3.862,1.084
		c-2.604,0.588-38.567,11.307-39.872,145.024H345v-32.5c0-4.142,3.358-7.5,7.5-7.5s7.5,3.358,7.5,7.5V170h12.5H385v-32.5
		c0-4.142,3.358-7.5,7.5-7.5s7.5,3.358,7.5,7.5V170h2.5c4.142,0,7.5,3.358,7.5,7.5s-3.358,7.5-7.5,7.5H380v270h22.5
		c28.949,0,52.5-23.551,52.5-52.5v-225C455,87.897,382.103,15,292.5,15z"/>
	<path style="fill:#3DE2F3;" d="M67.5,455H90V185H67.5c-4.142,0-7.5-3.358-7.5-7.5s3.358-7.5,7.5-7.5H70v-32.5
		c0-4.142,3.358-7.5,7.5-7.5s7.5,3.358,7.5,7.5V170h12.5h2.592c0.874-36.421,8.152-68.113,21.67-94.295
		c1.799-3.487,5.952-4.96,9.514-3.492c2.254-3.788,4.618-7.322,7.074-10.61c-2.797-2.715-3.067-7.166-0.52-10.197
		c16.64-19.804,36.145-30.317,53.359-35.834C186.652,15.193,182.087,15,177.5,15C87.897,15,15,87.897,15,177.5v225
		C15,431.449,38.551,455,67.5,455z"/>
	<path style="fill:#FFFFFF;" d="M131.866,72.482c3.68,1.9,5.124,6.424,3.223,10.105c-12.423,24.06-19.132,53.441-19.989,87.413
		h65.563c0.831-85.056,15.744-124.917,29.757-143.586c-17.618,3.104-41.819,11.688-61.106,34.642
		c-2.666,3.171-7.396,3.581-10.567,0.917c-0.14-0.118-0.268-0.244-0.397-0.37c-2.456,3.288-4.82,6.822-7.074,10.61
		C131.474,72.295,131.672,72.382,131.866,72.482z"/>
	<path style="fill:#081C1F;" d="M292.5,0c-19.691,0-39.021,3.206-57.5,9.532C216.521,3.206,197.191,0,177.5,0
		C79.626,0,0,79.626,0,177.5v225C0,439.72,30.28,470,67.5,470h30c4.142,0,7.5-3.358,7.5-7.5v-26.234
		c77.073-56.589,182.927-56.589,260,0V462.5c0,4.142,3.358,7.5,7.5,7.5h30c37.22,0,67.5-30.28,67.5-67.5v-225
		C470,79.626,390.374,0,292.5,0z M455,402.5c0,28.949-23.551,52.5-52.5,52.5H380V185h22.5c4.142,0,7.5-3.358,7.5-7.5
		s-3.358-7.5-7.5-7.5H400v-32.5c0-4.142-3.358-7.5-7.5-7.5s-7.5,3.358-7.5,7.5V170h-12.5H360v-32.5c0-4.142-3.358-7.5-7.5-7.5
		s-7.5,3.358-7.5,7.5V170H195.665c1.304-133.717,37.267-144.436,39.872-145.024c1.44,0.01,2.755-0.387,3.862-1.084
		C256.451,17.997,274.303,15,292.5,15C382.103,15,455,87.897,455,177.5V402.5z M15,177.5C15,87.897,87.897,15,177.5,15
		c4.587,0,9.152,0.193,13.688,0.572c-17.214,5.517-36.719,16.031-53.359,35.834c-2.547,3.031-2.277,7.483,0.52,10.197
		c0.129,0.125,0.257,0.252,0.397,0.37c3.171,2.664,7.901,2.254,10.567-0.917c19.287-22.954,43.489-31.539,61.106-34.642
		C196.407,45.083,181.494,84.944,180.663,170H115.1c0.857-33.972,7.566-63.353,19.989-87.413c1.9-3.681,0.457-8.205-3.223-10.105
		c-0.194-0.1-0.392-0.186-0.591-0.268c-3.562-1.468-7.714,0.005-9.514,3.492c-13.518,26.182-20.796,57.874-21.67,94.295H97.5H85
		v-32.5c0-4.142-3.358-7.5-7.5-7.5s-7.5,3.358-7.5,7.5V170h-2.5c-4.142,0-7.5,3.358-7.5,7.5s3.358,7.5,7.5,7.5H90v270H67.5
		C38.551,455,15,431.449,15,402.5V177.5z M105,185h2.5h80.625H365v232.96c-78.448-52.174-181.552-52.175-260,0V185z"/>
</g>
<g>
</g>
<g>
</g>
<g>
</g>
<g>
</g>
<g>
</g>
<g>
</g>
<g>
</g>
<g>
</g>
<g>
</g>
<g>
</g>
<g>
</g>
<g>
</g>
<g>
</g>
<g>
</g>
<g>
</g>
</svg>
