<?xml version="1.0" encoding="iso-8859-1"?>
<!-- Generator: Adobe Illustrator 19.1.0, SVG Export Plug-In . SVG Version: 6.00 Build 0)  -->
<svg version="1.1" id="Capa_1" xmlns="http://www.w3.org/2000/svg" xmlns:xlink="http://www.w3.org/1999/xlink" x="0px" y="0px"
	 viewBox="0 0 470 470" style="enable-background:new 0 0 470 470;" xml:space="preserve">
<g>
	<path style="fill:#FFAD85;" d="M217.657,189.359c-3.505,20.154-14.634,84.56-20.092,120.814
		c-0.923,6.139-1.732,11.701-2.409,16.552c-0.522,3.751-3.735,6.466-7.418,6.466c-0.346,0-0.693-0.024-1.045-0.073
		c-4.103-0.572-6.965-4.361-6.393-8.463c0.453-3.252,0.966-6.823,1.53-10.656c-2.212-0.566-4.494-0.861-6.831-0.861
		c-15.165,0-27.502,12.337-27.502,27.502c0,15.165,12.337,27.502,27.502,27.502c1.723,0,3.417-0.165,5.078-0.476
		c-1.129-3.645-1.903-7.396-2.288-11.228c-0.413-4.122,2.593-7.798,6.715-8.211c4.118-0.42,7.798,2.592,8.211,6.714
		c0.493,4.919,1.828,9.666,3.968,14.11c7.055,14.64,22.09,24.09,38.316,24.09s31.262-9.45,38.311-24.077
		c2.146-4.458,3.48-9.204,3.973-14.121c0.413-4.122,4.087-7.124,8.21-6.716c4.122,0.413,7.128,4.088,6.716,8.21
		c-0.384,3.831-1.157,7.583-2.287,11.229c1.661,0.31,3.355,0.476,5.078,0.476c15.165,0,27.502-12.337,27.502-27.502
		c0-15.165-12.337-27.502-27.502-27.502c-2.337,0-4.619,0.296-6.831,0.862c0.566,3.847,1.08,7.419,1.53,10.658
		c0.57,4.103-2.292,7.891-6.395,8.462c-0.351,0.049-0.699,0.073-1.044,0.073c-3.684,0-6.896-2.715-7.419-6.467
		c-0.671-4.822-1.48-10.384-2.405-16.532c-5.459-36.273-16.589-100.679-20.094-120.833H217.657z"/>
	<path style="fill:#1F717A;" d="M408.086,94.183C392.6,82.85,374.243,76.859,355,76.859c-44,0-82.235,32.735-88.939,76.145
		c-0.564,3.657-3.712,6.355-7.412,6.355h-47.297c-3.7,0-6.848-2.699-7.412-6.355C197.235,109.594,159,76.859,115,76.859
		c-49.626,0-90,40.374-90,90s40.374,90,90,90c43.835,0,81.939-32.493,88.853-75.66c0.066-0.376,0.104-0.595,0.111-0.634
		c0.013-0.073,0.034-0.142,0.049-0.213c0.03-0.144,0.06-0.288,0.098-0.429c0.027-0.1,0.057-0.197,0.088-0.295
		c0.041-0.13,0.083-0.26,0.13-0.386c0.037-0.1,0.077-0.198,0.118-0.296c0.05-0.119,0.104-0.237,0.16-0.353
		c0.047-0.097,0.095-0.194,0.146-0.288c0.06-0.112,0.125-0.221,0.19-0.329c0.055-0.09,0.109-0.181,0.168-0.269
		c0.074-0.11,0.152-0.216,0.231-0.322c0.058-0.078,0.115-0.158,0.176-0.234c0.098-0.122,0.203-0.238,0.309-0.353
		c0.048-0.052,0.093-0.108,0.143-0.159c0.324-0.334,0.679-0.636,1.059-0.904c0.034-0.024,0.071-0.045,0.105-0.069
		c0.156-0.106,0.315-0.209,0.479-0.303c0.055-0.032,0.112-0.06,0.167-0.09c0.147-0.08,0.295-0.157,0.448-0.227
		c0.069-0.032,0.14-0.06,0.211-0.09c0.141-0.06,0.283-0.116,0.429-0.167c0.083-0.029,0.167-0.055,0.251-0.082
		c0.135-0.042,0.271-0.081,0.409-0.116c0.096-0.024,0.193-0.046,0.29-0.067c0.128-0.027,0.257-0.049,0.387-0.069
		c0.108-0.017,0.216-0.032,0.325-0.045c0.124-0.014,0.248-0.022,0.374-0.029c0.114-0.007,0.228-0.014,0.343-0.016
		c0.036,0,0.071-0.005,0.107-0.005h47.297c0.032,0,0.063,0.004,0.096,0.004c0.128,0.001,0.255,0.009,0.381,0.017
		c0.11,0.007,0.219,0.014,0.328,0.026c0.125,0.013,0.248,0.031,0.371,0.051c0.112,0.018,0.223,0.037,0.333,0.06
		c0.115,0.024,0.228,0.05,0.341,0.078c0.119,0.03,0.236,0.064,0.352,0.099c0.102,0.031,0.203,0.063,0.303,0.099
		c0.125,0.044,0.248,0.094,0.37,0.145c0.089,0.037,0.178,0.073,0.265,0.114c0.131,0.061,0.259,0.127,0.386,0.195
		c0.075,0.04,0.151,0.078,0.225,0.12c0.14,0.081,0.276,0.17,0.411,0.26c0.056,0.038,0.115,0.072,0.17,0.111
		c0.178,0.126,0.351,0.26,0.518,0.402c0.202,0.171,0.368,0.328,0.528,0.493c0.057,0.059,0.109,0.123,0.165,0.184
		c0.098,0.108,0.197,0.216,0.289,0.33c0.063,0.078,0.121,0.16,0.181,0.241c0.078,0.104,0.155,0.208,0.227,0.317
		c0.059,0.088,0.113,0.178,0.168,0.269c0.066,0.109,0.131,0.219,0.192,0.332c0.05,0.093,0.097,0.188,0.144,0.284
		c0.057,0.118,0.112,0.238,0.163,0.359c0.04,0.096,0.079,0.192,0.115,0.29c0.048,0.13,0.092,0.261,0.133,0.394
		c0.03,0.096,0.06,0.191,0.086,0.288c0.038,0.142,0.069,0.288,0.099,0.433c0.014,0.071,0.035,0.139,0.048,0.211
		c0.007,0.038,0.045,0.258,0.111,0.634c6.914,43.167,45.018,75.66,88.853,75.66c49.626,0,90-40.374,90-90
		c0-19.243-5.99-37.6-17.324-53.086c-2.39-3.265-1.744-7.813,1.402-10.302c-3.282-3.833-6.857-7.407-10.689-10.689
		C415.898,95.927,411.35,96.572,408.086,94.183z M115,241.859c-41.355,0-75-33.645-75-75s33.645-75,75-75s75,33.645,75,75
		S156.355,241.859,115,241.859z M430,166.859c0,41.355-33.645,75-75,75s-75-33.645-75-75s33.645-75,75-75S430,125.504,430,166.859z"
		/>
	<path style="fill:#081C1F;" d="M115,91.859c-41.355,0-75,33.645-75,75s33.645,75,75,75s75-33.645,75-75S156.355,91.859,115,91.859z
		 M115,226.859c-33.084,0-60-26.916-60-60s26.916-60,60-60s60,26.916,60,60S148.084,226.859,115,226.859z"/>
	<path style="fill:#081C1F;" d="M355,91.859c-41.355,0-75,33.645-75,75s33.645,75,75,75s75-33.645,75-75S396.355,91.859,355,91.859z
		 M355,226.859c-33.084,0-60-26.916-60-60s26.916-60,60-60s60,26.916,60,60S388.084,226.859,355,226.859z"/>
	<path style="fill:#081C1F;" d="M462.5,159.359h-2.775c-1.383-19.704-8.198-38.395-19.943-54.445
		c-2.447-3.343-7.139-4.07-10.482-1.623c-0.077,0.057-0.146,0.12-0.221,0.179c-3.146,2.489-3.792,7.037-1.402,10.302
		C439.01,129.259,445,147.616,445,166.859c0,49.626-40.374,90-90,90c-43.835,0-81.939-32.493-88.853-75.66
		c-0.066-0.376-0.104-0.595-0.111-0.634c-0.013-0.072-0.034-0.14-0.048-0.211c-0.03-0.146-0.061-0.291-0.099-0.433
		c-0.026-0.097-0.056-0.192-0.086-0.288c-0.041-0.133-0.085-0.265-0.133-0.394c-0.036-0.098-0.075-0.194-0.115-0.29
		c-0.051-0.122-0.105-0.241-0.163-0.359c-0.046-0.096-0.094-0.19-0.144-0.284c-0.061-0.113-0.125-0.222-0.192-0.332
		c-0.055-0.091-0.109-0.181-0.168-0.269c-0.072-0.109-0.15-0.213-0.227-0.317c-0.06-0.081-0.118-0.163-0.181-0.241
		c-0.092-0.114-0.191-0.222-0.289-0.33c-0.056-0.061-0.108-0.125-0.165-0.184c-0.16-0.164-0.326-0.322-0.5-0.471
		c-0.195-0.163-0.368-0.297-0.546-0.424c-0.055-0.039-0.114-0.073-0.17-0.111c-0.135-0.09-0.27-0.179-0.411-0.26
		c-0.074-0.043-0.15-0.08-0.225-0.12c-0.127-0.068-0.255-0.135-0.386-0.195c-0.087-0.041-0.176-0.076-0.265-0.114
		c-0.122-0.051-0.245-0.1-0.37-0.145c-0.1-0.036-0.202-0.068-0.303-0.099c-0.116-0.036-0.233-0.069-0.352-0.099
		c-0.113-0.029-0.227-0.055-0.341-0.078c-0.11-0.023-0.221-0.042-0.333-0.06c-0.123-0.02-0.247-0.037-0.371-0.051
		c-0.109-0.012-0.218-0.019-0.328-0.026c-0.127-0.008-0.253-0.016-0.381-0.017c-0.032,0-0.063-0.004-0.096-0.004h-47.297
		c-0.036,0-0.071,0.004-0.107,0.005c-0.115,0.001-0.229,0.009-0.343,0.016c-0.125,0.007-0.25,0.016-0.374,0.029
		c-0.109,0.012-0.217,0.028-0.325,0.045c-0.13,0.02-0.259,0.043-0.387,0.069c-0.097,0.021-0.194,0.042-0.29,0.067
		c-0.138,0.035-0.274,0.073-0.409,0.116c-0.084,0.026-0.168,0.053-0.251,0.082c-0.145,0.051-0.287,0.108-0.429,0.167
		c-0.071,0.03-0.141,0.058-0.211,0.09c-0.152,0.07-0.301,0.147-0.448,0.227c-0.056,0.03-0.112,0.058-0.167,0.09
		c-0.164,0.094-0.323,0.197-0.479,0.303c-0.035,0.024-0.071,0.045-0.105,0.069c-0.38,0.268-0.735,0.571-1.059,0.904
		c-0.05,0.051-0.095,0.107-0.143,0.159c-0.106,0.115-0.211,0.231-0.309,0.353c-0.061,0.076-0.118,0.156-0.176,0.234
		c-0.079,0.106-0.158,0.212-0.231,0.322c-0.058,0.088-0.113,0.178-0.168,0.269c-0.066,0.108-0.13,0.217-0.19,0.329
		c-0.051,0.095-0.099,0.191-0.146,0.288c-0.056,0.116-0.109,0.233-0.16,0.353c-0.041,0.098-0.081,0.196-0.118,0.296
		c-0.047,0.127-0.09,0.256-0.13,0.386c-0.03,0.098-0.061,0.195-0.088,0.295c-0.038,0.141-0.068,0.285-0.098,0.429
		c-0.015,0.072-0.036,0.141-0.049,0.213c-0.007,0.038-0.045,0.258-0.111,0.634c-6.914,43.167-45.018,75.66-88.853,75.66
		c-49.626,0-90-40.374-90-90s40.374-90,90-90c44,0,82.235,32.735,88.939,76.145c0.564,3.657,3.712,6.355,7.412,6.355h47.297
		c3.7,0,6.848-2.699,7.412-6.355C272.765,109.594,311,76.859,355,76.859c19.243,0,37.6,5.991,53.086,17.324
		c3.264,2.389,7.812,1.745,10.302-1.402c0.059-0.075,0.123-0.144,0.18-0.221c2.446-3.343,1.719-8.035-1.623-10.481
		C398.87,68.851,377.45,61.859,355,61.859c-25.221,0-49.604,9.076-68.656,25.555c-17.212,14.888-29.102,34.919-33.923,56.945
		h-34.842c-4.821-22.025-16.711-42.057-33.923-56.945C164.604,70.935,140.221,61.859,115,61.859
		c-55.375,0-100.87,43.09-104.729,97.5H7.5c-4.143,0-7.5,3.358-7.5,7.5s3.357,7.5,7.5,7.5h2.771
		c3.859,54.41,49.354,97.5,104.729,97.5c25.222,0,49.604-9.076,68.656-25.555c3.917-3.388,7.543-7.054,10.888-10.938
		c-3.598,21.26-7.533,44.955-10.457,63.74c-2.959-0.645-5.994-0.969-9.087-0.969c-23.436,0-42.502,19.066-42.502,42.502
		c0,23.436,19.066,42.502,42.502,42.502c3.942,0,7.797-0.53,11.521-1.58c10.472,16.337,28.831,26.58,48.479,26.58
		s38.008-10.243,48.479-26.58c3.724,1.05,7.578,1.58,11.521,1.58c23.436,0,42.502-19.066,42.502-42.502
		c0-23.436-19.066-42.502-42.502-42.502c-3.093,0-6.128,0.325-9.087,0.969c-2.924-18.785-6.859-42.48-10.457-63.74
		c3.345,3.884,6.971,7.55,10.888,10.938c19.053,16.479,43.435,25.555,68.656,25.555c55.375,0,100.87-43.09,104.729-97.5h2.771
		c4.143,0,7.5-3.358,7.5-7.5S466.643,159.359,462.5,159.359z M272.435,310.173c0.927,6.166,1.736,11.728,2.407,16.551
		c0.522,3.752,3.735,6.467,7.419,6.467c0.345,0,0.693-0.024,1.044-0.073c4.103-0.571,6.965-4.359,6.395-8.462
		c-0.451-3.239-0.964-6.811-1.53-10.658c2.212-0.566,4.494-0.862,6.831-0.862c15.165,0,27.502,12.337,27.502,27.502
		c0,15.165-12.337,27.502-27.502,27.502c-1.723,0-3.417-0.165-5.078-0.476c1.129-3.646,1.903-7.397,2.287-11.229
		c0.412-4.122-2.594-7.797-6.716-8.21c-4.123-0.408-7.797,2.594-8.21,6.716c-0.492,4.917-1.827,9.664-3.967,14.108
		c-7.055,14.64-22.09,24.09-38.316,24.09s-31.262-9.45-38.311-24.077c-2.145-4.457-3.48-9.204-3.974-14.123
		c-0.413-4.122-4.093-7.134-8.211-6.714c-4.122,0.413-7.128,4.089-6.715,8.211c0.385,3.831,1.159,7.583,2.288,11.228
		c-1.661,0.31-3.355,0.476-5.078,0.476c-15.165,0-27.502-12.337-27.502-27.502c0-15.165,12.337-27.502,27.502-27.502
		c2.337,0,4.619,0.296,6.831,0.861c-0.564,3.833-1.077,7.404-1.53,10.656c-0.572,4.103,2.29,7.892,6.393,8.463
		c0.352,0.049,0.699,0.073,1.045,0.073c3.683,0,6.896-2.714,7.418-6.466c0.677-4.85,1.486-10.413,2.407-16.533
		c5.459-36.273,16.589-100.679,20.094-120.833h34.686C255.847,209.513,266.977,273.919,272.435,310.173z"/>
</g>
<g>
</g>
<g>
</g>
<g>
</g>
<g>
</g>
<g>
</g>
<g>
</g>
<g>
</g>
<g>
</g>
<g>
</g>
<g>
</g>
<g>
</g>
<g>
</g>
<g>
</g>
<g>
</g>
<g>
</g>
</svg>
