<?xml version="1.0" encoding="iso-8859-1"?>
<!-- Generator: Adobe Illustrator 19.1.0, SVG Export Plug-In . SVG Version: 6.00 Build 0)  -->
<svg version="1.1" id="Capa_1" xmlns="http://www.w3.org/2000/svg" xmlns:xlink="http://www.w3.org/1999/xlink" x="0px" y="0px"
	 viewBox="0 0 470 470" style="enable-background:new 0 0 470 470;" xml:space="preserve">
<g>
	<path style="fill:#FFAD85;" d="M84.056,442.827c0,4.136,3.364,7.5,7.5,7.5s7.5-3.364,7.5-7.5V161.678
		c-5.189-4.262-10.194-8.78-15-13.549V442.827z"/>
	<path style="fill:#FF3B33;" d="M328.677,96.931c-18.373,0-31.11,7.878-44.596,16.22c-13.984,8.65-28.445,17.595-49.081,17.595
		s-35.097-8.945-49.081-17.595c-13.485-8.341-26.223-16.22-44.596-16.22c-20.891,0-40.373,4.022-57.562,7.571
		c-7.635,1.576-15.047,3.103-22.193,4.209c3.224,4.945,6.651,9.745,10.274,14.386c0.634-0.513,1.35-0.936,2.146-1.226
		c2.964-1.081,6.281-0.191,8.31,2.222c38.025,45.249,93.683,71.2,152.702,71.2c57.896,0,112.862-25.14,150.803-68.973
		c2.678-3.092,7.33-3.457,10.459-0.856c4.32-5.371,8.378-10.962,12.155-16.754c-7.143-1.106-14.55-2.631-22.18-4.207
		C369.049,100.953,349.568,96.931,328.677,96.931z M312.464,163.43c-24.269,11.188-50.331,16.861-77.464,16.861
		c-4.143,0-7.5-3.358-7.5-7.5s3.357-7.5,7.5-7.5c24.948,0,48.898-5.209,71.185-15.483c3.762-1.734,8.217-0.09,9.951,3.671
		C317.869,157.241,316.226,161.696,312.464,163.43z M364.287,127.516c-7.571,7.484-15.859,14.352-24.633,20.412
		c-1.301,0.899-2.786,1.33-4.256,1.33c-2.381,0-4.723-1.131-6.178-3.238c-2.354-3.408-1.5-8.08,1.908-10.434
		c8.055-5.564,15.663-11.868,22.613-18.738c2.946-2.911,7.694-2.885,10.606,0.062C367.261,119.856,367.233,124.604,364.287,127.516z
		"/>
	<path style="fill:#FF3B33;" d="M299.694,19.673c-17.556,0-25.747,5.215-34.42,10.736c-8.013,5.102-16.299,10.376-30.274,10.376
		s-22.262-5.275-30.274-10.376c-8.673-5.521-16.864-10.736-34.42-10.736c-29.521,0-53.424,18.327-78.729,37.73
		c-19.38,14.859-39.264,30.105-62.091,36.459c3.911,1.035,8.216,1.531,13.032,1.53c11.179,0,23.706-2.587,38.211-5.582
		c17.893-3.694,38.172-7.88,60.595-7.88c22.637,0,38.495,9.809,52.486,18.463c12.764,7.895,24.819,15.352,41.19,15.352
		s28.427-7.457,41.19-15.352c13.991-8.654,29.85-18.463,52.486-18.463c22.424,0,42.701,4.187,60.593,7.881
		c14.505,2.995,27.033,5.581,38.213,5.581c4.816,0,9.12-0.495,13.032-1.531c-22.827-6.353-42.711-21.599-62.091-36.458
		C353.118,38,329.216,19.673,299.694,19.673z M170.306,49.673c-11.552,0-23.583,4.931-40.229,16.486
		c-1.305,0.905-2.795,1.339-4.271,1.339c-2.375,0-4.711-1.125-6.168-3.224c-2.362-3.403-1.519-8.076,1.884-10.438
		c13.652-9.477,30.123-19.164,48.784-19.164c4.143,0,7.5,3.358,7.5,7.5S174.448,49.673,170.306,49.673z"/>
	<path style="fill:#081C1F;" d="M469.429,86.561c-1.16-2.803-3.896-4.63-6.929-4.63c-27.436,0-50.515-17.696-74.949-36.431
		c-26.178-20.072-53.246-40.827-87.856-40.827c-21.925,0-33.319,7.254-42.476,13.083c-7.047,4.486-12.612,8.03-22.219,8.03
		s-15.172-3.543-22.219-8.03c-9.156-5.829-20.551-13.083-42.476-13.083c-34.61,0-61.679,20.755-87.856,40.827
		C58.015,64.235,34.936,81.931,7.5,81.931c-3.033,0-5.769,1.827-6.929,4.63c-1.161,2.803-0.52,6.028,1.625,8.173
		c10.685,10.684,23.497,15.66,40.322,15.659c6.097,0,12.461-0.663,19.05-1.682c7.147-1.106,14.558-2.633,22.193-4.209
		c17.188-3.549,36.671-7.571,57.562-7.571c18.373,0,31.11,7.878,44.596,16.22c13.984,8.65,28.445,17.595,49.081,17.595
		s35.097-8.945,49.081-17.595c13.485-8.341,26.223-16.22,44.596-16.22c20.892,0,40.372,4.022,57.56,7.571
		c7.63,1.575,15.037,3.101,22.18,4.207c6.594,1.021,12.964,1.684,19.066,1.684c16.825,0,29.638-4.976,40.321-15.659
		C469.948,92.589,470.59,89.364,469.429,86.561z M427.482,95.393c-11.18,0-23.708-2.586-38.213-5.581
		c-17.892-3.694-38.169-7.881-60.593-7.881c-22.637,0-38.495,9.809-52.486,18.463c-12.764,7.895-24.819,15.352-41.19,15.352
		s-28.427-7.457-41.19-15.352c-13.991-8.654-29.85-18.463-52.486-18.463c-22.423,0-42.702,4.187-60.595,7.88
		c-14.505,2.995-27.032,5.581-38.211,5.582c-4.816,0-9.121-0.495-13.032-1.53c22.827-6.354,42.711-21.6,62.091-36.459
		c25.306-19.403,49.208-37.73,78.729-37.73c17.556,0,25.747,5.215,34.42,10.736c8.013,5.102,16.299,10.376,30.274,10.376
		s22.262-5.275,30.274-10.376c8.673-5.521,16.864-10.736,34.42-10.736c29.521,0,53.424,18.327,78.729,37.73
		c19.38,14.859,39.264,30.105,62.091,36.458C436.603,94.898,432.299,95.393,427.482,95.393z"/>
	<path style="fill:#FFFFFF;" d="M170.306,34.673c-18.661,0-35.132,9.688-48.784,19.164c-3.402,2.362-4.246,7.035-1.884,10.438
		c1.457,2.099,3.793,3.224,6.168,3.224c1.476,0,2.966-0.435,4.271-1.339c16.646-11.556,28.678-16.486,40.229-16.486
		c4.143,0,7.5-3.358,7.5-7.5S174.448,34.673,170.306,34.673z"/>
	<path style="fill:#081C1F;" d="M385.803,126.319c-37.94,43.833-92.906,68.973-150.803,68.973c-59.02,0-114.677-25.952-152.702-71.2
		c-2.028-2.413-5.346-3.302-8.31-2.222c-0.796,0.29-1.512,0.713-2.146,1.226c-1.725,1.398-2.787,3.515-2.787,5.821v313.91
		c0,12.407,10.094,22.5,22.5,22.5s22.5-10.093,22.5-22.5V172.936c35.259,24.124,77.246,37.356,120.944,37.356
		c62.253,0,121.353-27.029,162.145-74.156c2.711-3.132,2.369-7.868-0.763-10.579c-0.039-0.034-0.081-0.061-0.12-0.094
		C393.133,122.862,388.481,123.226,385.803,126.319z M99.056,442.827c0,4.136-3.364,7.5-7.5,7.5s-7.5-3.364-7.5-7.5V148.128
		c4.806,4.769,9.811,9.288,15,13.549V442.827z"/>
	<path style="fill:#FFFFFF;" d="M306.185,149.808c-22.286,10.274-46.236,15.483-71.185,15.483c-4.143,0-7.5,3.358-7.5,7.5
		s3.357,7.5,7.5,7.5c27.133,0,53.195-5.673,77.464-16.861c3.762-1.734,5.405-6.189,3.672-9.951
		C314.401,149.719,309.946,148.074,306.185,149.808z"/>
	<path style="fill:#FFFFFF;" d="M353.742,116.848c-6.95,6.87-14.559,13.174-22.613,18.738c-3.408,2.354-4.263,7.025-1.908,10.434
		c1.455,2.107,3.797,3.238,6.178,3.238c1.47,0,2.955-0.431,4.256-1.33c8.773-6.06,17.062-12.928,24.633-20.412
		c2.946-2.912,2.974-7.661,0.062-10.606C361.437,113.963,356.689,113.937,353.742,116.848z"/>
</g>
<g>
</g>
<g>
</g>
<g>
</g>
<g>
</g>
<g>
</g>
<g>
</g>
<g>
</g>
<g>
</g>
<g>
</g>
<g>
</g>
<g>
</g>
<g>
</g>
<g>
</g>
<g>
</g>
<g>
</g>
</svg>
