<?xml version="1.0" encoding="iso-8859-1"?>
<!-- Generator: Adobe Illustrator 19.0.0, SVG Export Plug-In . SVG Version: 6.00 Build 0)  -->
<svg version="1.1" id="Layer_1" xmlns="http://www.w3.org/2000/svg" xmlns:xlink="http://www.w3.org/1999/xlink" x="0px" y="0px"
	 viewBox="0 0 512 512" style="enable-background:new 0 0 512 512;" xml:space="preserve">
<path style="fill:#EFEFEF;" d="M366.164,424.144H145.836c-46.356,0-83.934-37.578-83.934-83.934l0,0h388.197l0,0
	C450.099,386.566,412.52,424.144,366.164,424.144z"/>
<polygon style="fill:#395087;" points="450.805,143.83 256,87.857 61.196,143.83 10.492,229.523 61.196,298.243 61.902,298.243 
	61.902,340.21 450.099,340.21 450.099,298.243 450.805,298.243 501.509,229.523 "/>
<path style="fill:#FAB234;" d="M256,251.179L256,251.179c0,0-37.246-18.79-37.246-41.967v-52.459h74.492v52.459
	C293.246,232.39,256,251.179,256,251.179z"/>
<g>
	<path style="fill:#231F20;" d="M510.538,224.18l-50.704-85.693c-1.364-2.305-3.559-4.002-6.132-4.741L258.898,77.772
		c-1.894-0.545-3.902-0.545-5.795,0L58.298,133.746c-2.574,0.74-4.769,2.436-6.132,4.741L1.462,224.18
		c-2.145,3.626-1.914,8.183,0.588,11.571l38.366,51.999h-0.547c-5.794,0-10.492,4.697-10.492,10.492
		c0,5.795,4.698,10.492,10.492,10.492H51.41v31.475c0,52.067,42.36,94.426,94.426,94.426h220.328
		c52.067,0,94.426-42.36,94.426-94.426v-31.475h11.541c5.794,0,10.492-4.697,10.492-10.492c0-5.795-4.698-10.492-10.492-10.492
		h-0.547l38.366-51.999C512.453,232.363,512.682,227.805,510.538,224.18z M366.164,413.653H145.836
		c-36.934,0-67.589-27.407-72.696-62.951H438.86C433.754,386.246,403.099,413.653,366.164,413.653z M445.508,287.751h-80.742
		c-5.794,0-10.492,4.697-10.492,10.492c0,5.795,4.698,10.492,10.492,10.492h74.841v20.984H72.394v-20.984h202.142
		c5.794,0,10.492-4.697,10.492-10.492c0-5.795-4.698-10.492-10.492-10.492H66.493l-43.434-58.866l45.042-76.123L256,98.774
		l187.899,53.988l45.042,76.123L445.508,287.751z"/>
	<path style="fill:#231F20;" d="M293.246,146.261h-74.492c-5.794,0-10.492,4.697-10.492,10.492v52.459
		c0,28.805,38.61,49.114,43.012,51.334c1.486,0.749,3.106,1.125,4.725,1.125c1.62,0,3.24-0.375,4.726-1.125
		c4.402-2.221,43.012-22.529,43.012-51.334v-52.459C303.738,150.958,299.04,146.261,293.246,146.261z M282.754,209.211
		c0,10.843-15.832,23.39-26.768,29.97c-10.929-6.549-26.74-19.063-26.74-29.97v-41.967h53.508V209.211z"/>
	<path style="fill:#231F20;" d="M321.05,287.751h-2.098c-5.794,0-10.492,4.697-10.492,10.492c0,5.795,4.698,10.492,10.492,10.492
		h2.098c5.794,0,10.492-4.697,10.492-10.492C331.541,292.448,326.843,287.751,321.05,287.751z"/>
</g>
<g>
</g>
<g>
</g>
<g>
</g>
<g>
</g>
<g>
</g>
<g>
</g>
<g>
</g>
<g>
</g>
<g>
</g>
<g>
</g>
<g>
</g>
<g>
</g>
<g>
</g>
<g>
</g>
<g>
</g>
</svg>
