<?xml version="1.0" encoding="iso-8859-1"?>
<!-- Generator: Adobe Illustrator 19.0.0, SVG Export Plug-In . SVG Version: 6.00 Build 0)  -->
<svg xmlns="http://www.w3.org/2000/svg" xmlns:xlink="http://www.w3.org/1999/xlink" version="1.1" id="Layer_1" x="0px" y="0px" viewBox="0 0 512 512" style="enable-background:new 0 0 512 512;" xml:space="preserve">
<path style="fill:#FFFFFF;" d="M256,506C117.928,506,6,394.072,6,256S117.928,6,256,6s250,111.928,250,250  C505.848,394.008,394.008,505.848,256,506z"/>
<path style="fill:#E04F5F;" d="M256,12c134.76,0,244,109.24,244,244S390.76,500,256,500S12,390.76,12,256  C12.152,121.304,121.304,12.152,256,12 M256,0C114.616,0,0,114.616,0,256s114.616,256,256,256s256-114.616,256-256S397.384,0,256,0z  "/>
<g>
	<path style="fill:#25B6D2;" d="M83.928,259.304L201.32,204.8v25.92l-88.776,38.88v0.488l88.8,38.888v25.92l-117.416-54.56   C83.928,280.336,83.928,259.304,83.928,259.304z"/>
	<path style="fill:#25B6D2;" d="M219.448,344.656l52.336-177.32h24.696l-52.336,177.32H219.448z"/>
	<path style="fill:#25B6D2;" d="M428.072,281.064L310.68,334.872v-25.92l90.736-38.888V269.6l-90.736-38.912V204.8l117.392,53.808   V281.064z"/>
</g>
<g>
</g>
<g>
</g>
<g>
</g>
<g>
</g>
<g>
</g>
<g>
</g>
<g>
</g>
<g>
</g>
<g>
</g>
<g>
</g>
<g>
</g>
<g>
</g>
<g>
</g>
<g>
</g>
<g>
</g>
</svg>
