<?xml version="1.0" encoding="iso-8859-1"?>
<!-- Generator: Adobe Illustrator 19.0.0, SVG Export Plug-In . SVG Version: 6.00 Build 0)  -->
<svg version="1.1" id="Layer_1" xmlns="http://www.w3.org/2000/svg" xmlns:xlink="http://www.w3.org/1999/xlink" x="0px" y="0px"
	 viewBox="0 0 512.001 512.001" style="enable-background:new 0 0 512.001 512.001;" xml:space="preserve">
<path style="fill:#FF6D68;" d="M473.875,432.045V282.797c0-120.331-97.545-217.875-217.875-217.875H142.444v31.904l-0.031,0.02
	c33.27,3.557,59.184,31.711,59.184,65.925c0,36.621-29.689,66.311-66.311,66.311c-53.661,0-97.162,43.501-97.162,97.163v105.801
	h435.751V432.045z"/>
<path style="opacity:0.15;enable-background:new    ;" d="M203.712,76.58h-61.268v20.244l-0.031,0.02
	c33.27,3.557,59.184,31.711,59.184,65.925c0,36.621-29.689,66.311-66.311,66.311c-53.661,0-97.162,43.501-97.162,97.163v105.801
	h383.468V294.457C421.592,174.128,324.042,76.58,203.712,76.58z"/>
<path style="fill:#EBEBEB;" d="M512,416.248c0-25.242-20.654-45.894-45.897-45.894H45.894C20.652,370.355,0,391.006,0,416.248
	v31.596c0,25.241,20.652,45.893,45.894,45.893h420.21c25.243,0,45.897-20.653,45.897-45.893v-31.596H512z"/>
<g style="opacity:0.2;">
	<path d="M59.702,448.536c-2.126,0-4.253-0.811-5.875-2.434l-23.794-23.794c-3.245-3.245-3.245-8.506,0-11.75
		c3.245-3.245,8.506-3.245,11.75,0l23.794,23.794c3.245,3.245,3.245,8.506,0,11.75C63.953,447.724,61.828,448.536,59.702,448.536z"
		/>
	<path d="M263.56,436.639c-2.126,0-4.253-0.811-5.876-2.434l-23.793-23.794c-3.245-3.245-3.245-8.506,0-11.75
		c3.245-3.245,8.506-3.245,11.75,0l23.794,23.794c3.245,3.245,3.245,8.506,0,11.75C267.813,435.828,265.686,436.639,263.56,436.639z
		"/>
	<path d="M446.112,467.972c-2.127,0-4.253-0.811-5.876-2.434l-23.793-23.794c-3.245-3.245-3.245-8.506,0.001-11.75
		c3.245-3.245,8.506-3.245,11.75,0l23.793,23.793c3.245,3.245,3.245,8.506-0.001,11.751
		C450.365,467.161,448.238,467.972,446.112,467.972z"/>
	<path d="M185.081,436.639c-2.126,0-4.253-0.811-5.875-2.434l-23.793-23.794c-3.245-3.245-3.245-8.506,0-11.75
		c3.245-3.245,8.506-3.245,11.75,0l23.793,23.794c3.245,3.245,3.245,8.506,0,11.75C189.333,435.828,187.206,436.639,185.081,436.639
		z"/>
	<path d="M104.529,434.713c-2.126,0-4.253-0.811-5.875-2.434l-23.793-23.794c-3.245-3.245-3.245-8.506,0-11.75
		c3.245-3.245,8.506-3.246,11.75,0l23.793,23.794c3.245,3.245,3.245,8.506,0,11.75C108.782,433.902,106.654,434.713,104.529,434.713
		z"/>
	<path d="M362.166,467.972c-2.127,0-4.253-0.811-5.876-2.434l-23.793-23.794c-3.245-3.245-3.245-8.506,0.001-11.75
		c3.244-3.245,8.505-3.245,11.751,0l23.793,23.793c3.245,3.245,3.245,8.506-0.001,11.751
		C366.419,467.161,364.292,467.972,362.166,467.972z"/>
	<path d="M110.876,467.972c-2.126,0-4.253-0.812-5.875-2.434c-3.245-3.245-3.245-8.506,0-11.751l23.794-23.793
		c3.245-3.245,8.506-3.245,11.75,0c3.245,3.245,3.245,8.506,0,11.75l-23.794,23.794
		C115.129,467.161,113.003,467.972,110.876,467.972z"/>
	<path d="M203.848,467.972c-2.126,0-4.253-0.812-5.875-2.434c-3.245-3.245-3.245-8.506,0-11.751l23.793-23.793
		c3.245-3.245,8.506-3.245,11.751,0c3.245,3.245,3.245,8.506,0,11.75l-23.794,23.794
		C208.101,467.161,205.975,467.972,203.848,467.972z"/>
	<path d="M295.322,448.536c-2.126,0-4.253-0.811-5.875-2.434c-3.246-3.245-3.246-8.505-0.001-11.75l23.793-23.794
		c3.246-3.245,8.507-3.246,11.75,0c3.246,3.245,3.246,8.505,0.001,11.75l-23.793,23.794
		C299.575,447.724,297.448,448.536,295.322,448.536z"/>
	<path d="M381.438,444.179c-2.126,0-4.253-0.811-5.875-2.434c-3.246-3.245-3.246-8.505-0.001-11.75l23.793-23.794
		c3.246-3.245,8.507-3.246,11.75,0c3.246,3.245,3.246,8.505,0.001,11.75l-23.793,23.793
		C385.689,443.367,383.564,444.179,381.438,444.179z"/>
	<path d="M455.333,440.355c-2.126,0-4.253-0.811-5.875-2.434c-3.246-3.245-3.246-8.505-0.001-11.75l23.793-23.794
		c3.246-3.245,8.507-3.246,11.75,0c3.246,3.245,3.246,8.505,0.001,11.751l-23.793,23.794
		C459.585,439.543,457.459,440.355,455.333,440.355z"/>
</g>
<path style="opacity:0.1;enable-background:new    ;" d="M397.604,370.355H45.894C20.652,370.355,0,391.006,0,416.248v31.596
	c0,25.241,20.652,45.893,45.894,45.893h351.711c25.244,0,45.897-20.653,45.897-45.893v-31.596
	C443.501,391.006,422.848,370.355,397.604,370.355z"/>
<circle style="fill:#EBEBEB;" cx="139.818" cy="79.527" r="61.263"/>
<path style="opacity:0.1;enable-background:new    ;" d="M129.057,19.22C100.354,24.309,78.55,49.363,78.55,79.527
	c0,30.163,21.804,55.216,50.507,60.305c28.701-5.088,50.506-30.143,50.506-60.305C179.562,49.363,157.758,24.309,129.057,19.22z"/>
<g>
</g>
<g>
</g>
<g>
</g>
<g>
</g>
<g>
</g>
<g>
</g>
<g>
</g>
<g>
</g>
<g>
</g>
<g>
</g>
<g>
</g>
<g>
</g>
<g>
</g>
<g>
</g>
<g>
</g>
</svg>
