<?xml version="1.0" encoding="iso-8859-1"?>
<!-- Generator: Adobe Illustrator 19.0.0, SVG Export Plug-In . SVG Version: 6.00 Build 0)  -->
<svg xmlns="http://www.w3.org/2000/svg" xmlns:xlink="http://www.w3.org/1999/xlink" version="1.1" id="Layer_1" x="0px" y="0px" viewBox="0 0 512 512" style="enable-background:new 0 0 512 512;" xml:space="preserve">
<rect x="58.736" style="fill:#CFDCE5;" width="298.16" height="397.496"/>
<path style="fill:#32BEA6;" d="M435.64,452.536L435.64,452.536l-46.344-46.304l-10.168-10.16  c-12.064-11.032-30.792-10.192-41.816,1.872c-10.352,11.32-10.336,28.672,0.024,39.976l17.552,17.536l0.072,0.088l17.784,17.768  L411.472,512l41.792-41.848L435.64,452.536z"/>
<ellipse style="fill:#415E72;" cx="259.064" cy="317.872" rx="142.848" ry="142.752"/>
<ellipse style="fill:#FFFFFF;" cx="259.064" cy="317.872" rx="118.912" ry="118.832"/>
<path style="fill:#E04F5F;" d="M259.064,424.608C200.112,424.568,152.36,376.752,152.4,317.8  c0.04-58.952,47.856-106.704,106.808-106.664c58.92,0.04,106.664,47.816,106.664,106.736  C365.784,376.816,318.008,424.56,259.064,424.608z M259.064,215.128C202.328,215.168,156.36,261.2,156.4,317.936  c0.04,56.736,46.072,102.704,102.808,102.664c56.712-0.04,102.656-46.016,102.664-102.728  C361.784,261.144,315.792,215.184,259.064,215.128L259.064,215.128z"/>
<g>
</g>
<g>
</g>
<g>
</g>
<g>
</g>
<g>
</g>
<g>
</g>
<g>
</g>
<g>
</g>
<g>
</g>
<g>
</g>
<g>
</g>
<g>
</g>
<g>
</g>
<g>
</g>
<g>
</g>
</svg>
