<?xml version="1.0" encoding="iso-8859-1"?>
<!-- Generator: Adobe Illustrator 19.0.0, SVG Export Plug-In . SVG Version: 6.00 Build 0)  -->
<svg xmlns="http://www.w3.org/2000/svg" xmlns:xlink="http://www.w3.org/1999/xlink" version="1.1" id="Layer_1" x="0px" y="0px" viewBox="0 0 512 512" style="enable-background:new 0 0 512 512;" xml:space="preserve">
<rect y="109.852" style="fill:#E04F5F;" width="512" height="358.496"/>
<path style="fill:#CFDCE5;" d="M0,119.372V55.636c0.024-8.824,7.176-15.976,16-16h479.96c8.824,0.024,15.976,7.176,16,16v63.728H0  V119.372z"/>
<polygon style="fill:#FFFFFF;" points="471.624,101.508 171.536,101.508 200.24,57.508 471.624,57.508 "/>
<g>
	<circle style="fill:#8BA0AE;" cx="53.904" cy="78.908" r="13.608"/>
	<circle style="fill:#8BA0AE;" cx="89.976" cy="78.908" r="13.608"/>
	<circle style="fill:#8BA0AE;" cx="126.056" cy="78.908" r="13.608"/>
</g>
<g>
	<path style="fill:#415E72;" d="M215.624,71.244l1.912,8.312c0.416,1.952,0.8,3.944,1.168,5.936h0.08   c0.376-1.992,0.976-4,1.504-5.896l2.4-8.352h3.76l2.296,8.128c0.56,2.144,1.048,4.136,1.464,6.128h0.08   c0.296-1.992,0.712-4,1.2-6.128l2.032-8.128h4.544l-5.752,18.312H228l-2.176-7.448c-0.568-1.928-1.032-3.888-1.392-5.864h-0.08   c-0.336,1.984-0.8,3.944-1.392,5.864l-2.328,7.448h-4.328l-5.424-18.312H215.624z"/>
	<path style="fill:#415E72;" d="M244.392,71.244l1.912,8.312c0.416,1.952,0.8,3.944,1.168,5.936h0.08   c0.376-1.992,0.976-4,1.504-5.896l2.4-8.352h3.76l2.296,8.128c0.56,2.144,1.048,4.136,1.464,6.128h0.08   c0.296-1.992,0.712-4,1.2-6.128l2.032-8.128h4.544l-5.752,18.312h-4.288l-2.176-7.448c-0.568-1.928-1.032-3.888-1.392-5.864h-0.08   c-0.336,1.984-0.8,3.944-1.392,5.864l-2.328,7.448h-4.328l-5.416-18.312H244.392z"/>
	<path style="fill:#415E72;" d="M273.16,71.244l1.912,8.312c0.416,1.952,0.8,3.944,1.168,5.936h0.08   c0.376-1.992,0.976-4,1.504-5.896l2.4-8.352h3.76l2.296,8.128c0.56,2.144,1.048,4.136,1.464,6.128h0.08   c0.296-1.992,0.712-4,1.2-6.128l2.032-8.128h4.544l-5.752,18.312h-4.328l-2.176-7.448c-0.568-1.928-1.032-3.888-1.392-5.864h-0.08   c-0.336,1.984-0.8,3.944-1.392,5.864l-2.328,7.448h-4.328l-5.416-18.312H273.16z"/>
	<path style="fill:#415E72;" d="M296.312,87.004c-0.112-1.544,1.056-2.888,2.6-3c0.096-0.008,0.192-0.008,0.288-0.008   c1.64,0,2.968,1.328,2.968,2.968s-1.328,2.96-2.968,2.968c-1.56,0.04-2.856-1.2-2.888-2.76   C296.312,87.116,296.312,87.06,296.312,87.004z"/>
	<rect y="459.596" style="fill:#415E72;" width="512" height="12.768"/>
	<polygon style="fill:#415E72;" points="501.744,459.588 435.928,459.588 407.336,459.588 336.608,459.588 318.688,445.964    193.312,445.964 175.392,459.588 104.664,459.588 76.072,459.588 10.256,459.588 0,459.588 0,472.356 512,472.356 512,459.588  "/>
	<polygon style="fill:#415E72;" points="440.352,92.508 437.496,89.708 447.384,79.548 436.904,69.324 439.696,66.468    453.04,79.468  "/>
	<rect x="421.616" y="77.508" style="fill:#415E72;" width="26.416" height="4"/>
</g>
<g>
	<rect x="115.616" y="322.076" style="fill:#FFFFFF;" width="274.48" height="8"/>
	<rect x="160.8" y="358.124" style="fill:#FFFFFF;" width="180.648" height="8"/>
	<path style="fill:#FFFFFF;" d="M453.6,268.332H58.4v-79.2h395.2V268.332z"/>
</g>
<g>
	<path style="fill:#415E72;" d="M390.32,249.596c-13.376,0.008-24.224-10.84-24.232-24.216s10.84-24.224,24.216-24.232   s24.224,10.84,24.232,24.216c0,0.008,0,0.008,0,0.016C414.52,238.748,403.688,249.58,390.32,249.596z M390.32,209.156   c-8.96-0.008-16.224,7.256-16.232,16.216c-0.008,8.96,7.256,16.224,16.216,16.232s16.224-7.256,16.232-16.216v-0.008   C406.52,216.428,399.272,209.18,390.32,209.156L390.32,209.156z"/>
	
		<rect x="406.568" y="235.769" transform="matrix(0.7073 -0.7069 0.7069 0.7073 -53.4577 362.1233)" style="fill:#415E72;" width="8" height="19.696"/>
	<path style="fill:#415E72;" d="M91.544,238.98c2.464,1.376,5.24,2.104,8.064,2.128c3.904,0,6.08-1.832,6.08-4.544   c0-2.52-1.68-4-5.928-5.536c-5.496-1.976-9-4.888-9-9.688c0-5.44,4.544-9.6,11.768-9.6c2.76-0.072,5.504,0.496,8,1.68l-1.488,4.896   c-2.04-1.064-4.312-1.616-6.616-1.6c-3.856,0-5.536,2.08-5.536,4c0,2.568,1.928,3.76,6.4,5.488c5.784,2.176,8.6,5.096,8.6,9.888   c0,5.336-4.056,9.984-12.656,9.984c-3.12,0.024-6.208-0.68-9-2.072L91.544,238.98z"/>
	<path style="fill:#415E72;" d="M121.68,235.268c0.136,3.608,3.184,6.424,6.792,6.288c0.208-0.008,0.416-0.024,0.624-0.056   c2.272,0.056,4.544-0.312,6.68-1.088l0.888,4.192c-2.68,1.024-5.536,1.528-8.408,1.488c-6.264,0.584-11.816-4.024-12.4-10.288   c-0.056-0.624-0.064-1.248-0.016-1.872c-0.568-6.56,4.288-12.336,10.84-12.904c0.312-0.024,0.624-0.04,0.936-0.048   c5.776-0.008,10.472,4.672,10.472,10.456c0,0.424-0.024,0.84-0.072,1.256c0.008,0.856-0.056,1.72-0.192,2.568L121.68,235.268   L121.68,235.268z M132.256,231.02c0.392-2.824-1.576-5.44-4.408-5.832c-0.192-0.024-0.392-0.04-0.584-0.048   c-3.12,0.184-5.568,2.752-5.6,5.88H132.256z"/>
	<path style="fill:#415E72;" d="M156.416,245.596l-0.4-2.672h-0.152c-1.76,2.096-4.384,3.28-7.12,3.2   c-3.944,0.232-7.328-2.784-7.56-6.72c-0.008-0.16-0.016-0.32-0.008-0.48c0-6.08,5.392-9.152,14.288-9.096v-0.4   c0-1.6-0.64-4.2-4.888-4.2c-2.28,0.008-4.52,0.624-6.48,1.784l-1.184-3.952c2.664-1.464,5.664-2.2,8.704-2.128   c4.936-0.56,9.4,2.992,9.96,7.928c0.08,0.736,0.08,1.48-0.024,2.208v8.704c-0.032,1.936,0.088,3.864,0.344,5.784h-5.48   L156.416,245.596z M155.616,233.828c-4.296-0.104-8.4,0.8-8.4,4.496c-0.152,1.76,1.152,3.312,2.912,3.464   c0.184,0.016,0.368,0.016,0.552,0c2.128,0.032,4.04-1.296,4.744-3.312c0.136-0.432,0.2-0.88,0.192-1.336L155.616,233.828z"/>
	<path style="fill:#415E72;" d="M167.952,229.292c0-3.264-0.056-5.6-0.2-7.768h5.288l0.2,4.6h0.192   c0.872-2.944,3.512-5.008,6.576-5.144c0.48-0.008,0.96,0.048,1.432,0.152v5.736c-0.584-0.136-1.184-0.2-1.784-0.2   c-2.712-0.064-5.048,1.912-5.44,4.6c-0.12,0.616-0.184,1.24-0.192,1.872v12.456h-6.08L167.952,229.292L167.952,229.292z"/>
	<path style="fill:#415E72;" d="M202.784,244.86c-2.168,0.856-4.488,1.28-6.824,1.232c-6.368,0.48-11.928-4.296-12.408-10.664   c-0.04-0.528-0.04-1.064-0.008-1.592c-0.24-6.872,5.136-12.64,12-12.88c0.464-0.016,0.936-0.008,1.4,0.032   c2.016-0.016,4.016,0.368,5.88,1.136l-1.088,4.544c-1.44-0.648-3.008-0.968-4.592-0.936c-4.304,0.24-7.592,3.92-7.352,8.224   c0.224,3.968,3.392,7.136,7.352,7.352c1.648,0.016,3.28-0.296,4.8-0.936L202.784,244.86z"/>
	<path style="fill:#415E72;" d="M207.256,210.5h6.128v14.296h0.104c1.608-2.4,4.312-3.848,7.2-3.856c4.104,0,8.4,2.72,8.4,10.4   v14.256h-6.08v-13.504c0-3.504-1.288-6.128-4.648-6.128c-2.136,0-4.032,1.376-4.696,3.408c-0.192,0.592-0.272,1.208-0.248,1.832   v14.4h-6.128V210.5H207.256z"/>
</g>
<g>
</g>
<g>
</g>
<g>
</g>
<g>
</g>
<g>
</g>
<g>
</g>
<g>
</g>
<g>
</g>
<g>
</g>
<g>
</g>
<g>
</g>
<g>
</g>
<g>
</g>
<g>
</g>
<g>
</g>
</svg>
