<?xml version="1.0" encoding="iso-8859-1"?>
<!-- Generator: Adobe Illustrator 19.0.0, SVG Export Plug-In . SVG Version: 6.00 Build 0)  -->
<svg xmlns="http://www.w3.org/2000/svg" xmlns:xlink="http://www.w3.org/1999/xlink" version="1.1" id="Layer_1" x="0px" y="0px" viewBox="0 0 512 512" style="enable-background:new 0 0 512 512;" xml:space="preserve">
<path style="fill:#FFFFFF;" d="M256,506C117.928,506,6,394.072,6,256S117.928,6,256,6s250,111.928,250,250  C505.848,394.008,394.008,505.848,256,506z"/>
<path style="fill:#E04F5F;" d="M256,12c134.76,0,244,109.24,244,244S390.76,500,256,500S12,390.76,12,256  C12.152,121.304,121.304,12.152,256,12 M256,0C114.616,0,0,114.616,0,256s114.616,256,256,256s256-114.616,256-256S397.384,0,256,0z  "/>
<rect x="360.64" y="184.64" style="fill:#25B6D2;" width="36.768" height="12"/>
<rect x="268.736" y="184.64" style="fill:#C7D5DD;" width="36.776" height="12"/>
<g>
	<rect x="124.088" y="184.64" style="fill:#E04F5F;" width="69.136" height="12"/>
	<rect x="386.72" y="308.464" style="fill:#E04F5F;" width="36.776" height="12"/>
</g>
<rect x="294.8" y="308.464" style="fill:#25B6D2;" width="36.776" height="12"/>
<rect x="129.28" y="308.464" style="fill:#E04F5F;" width="110.32" height="12"/>
<rect x="331.6" y="225.92" style="fill:#C7D5DD;" width="91.928" height="12"/>
<rect x="258" y="225.92" style="fill:#E04F5F;" width="36.784" height="12"/>
<rect x="139.496" y="225.92" style="fill:#C7D5DD;" width="81.752" height="12"/>
<rect x="349.96" y="267.2" style="fill:#25B6D2;" width="73.536" height="12"/>
<g>
	<rect x="276.4" y="267.2" style="fill:#C7D5DD;" width="36.776" height="12"/>
	<rect x="114.664" y="267.2" style="fill:#C7D5DD;" width="88.16" height="12"/>
</g>
<g>
	<path style="fill:#415E72;" d="M106.2,119.2l24-12.336v3.56l-20.184,10.12v0.112l20.184,10.12v3.56l-24-12.344V119.2z"/>
	<path style="fill:#415E72;" d="M136.848,128.88c2.432,1.464,5.216,2.248,8.056,2.272c4.592,0,7.28-2.4,7.28-5.936   c0-3.248-1.856-5.112-6.552-6.92c-5.68-2.008-9.192-4.952-9.192-9.856c0.272-5.528,4.968-9.784,10.496-9.512   c0.256,0.016,0.512,0.032,0.76,0.064c2.672-0.096,5.32,0.496,7.696,1.704l-1.24,3.664c-2.032-1.096-4.304-1.664-6.608-1.656   c-4.752,0-6.552,2.84-6.552,5.216c0,3.248,2.12,4.848,6.912,6.712c5.888,2.272,8.88,5.12,8.88,10.224   c0,5.368-4,10.016-12.184,10.016c-3.096,0.04-6.152-0.72-8.872-2.216L136.848,128.88z"/>
	<path style="fill:#415E72;" d="M180.88,133.424c-2.264,1.008-4.72,1.504-7.2,1.448c-6.552,0.336-12.128-4.696-12.464-11.248   c-0.024-0.504-0.016-1.008,0.016-1.504c-0.328-7.008,5.088-12.952,12.104-13.28c0.44-0.024,0.888-0.016,1.328,0.008   c2.168-0.024,4.312,0.416,6.296,1.288l-1.032,3.512c-1.624-0.848-3.44-1.256-5.264-1.184c-4.776-0.104-8.728,3.68-8.832,8.456   c-0.008,0.328,0.008,0.664,0.032,0.992c-0.432,4.712,3.04,8.88,7.752,9.312c0.304,0.024,0.616,0.04,0.928,0.032   c1.936,0.016,3.848-0.408,5.6-1.232L180.88,133.424z"/>
	<path style="fill:#415E72;" d="M186.168,117.16c0-2.944-0.048-5.48-0.2-7.8h4l0.16,4.904h0.2c0.872-3.136,3.672-5.344,6.92-5.48   c0.432,0,0.864,0.048,1.288,0.16v4.288c-0.504-0.112-1.024-0.168-1.544-0.16c-3.208,0.144-5.816,2.632-6.096,5.832   c-0.128,0.696-0.192,1.408-0.2,2.12v13.32H186.2L186.168,117.16z"/>
	<path style="fill:#415E72;" d="M208.304,102.336c-0.168,1.544-1.552,2.664-3.096,2.504c-1.32-0.144-2.36-1.184-2.504-2.504   c-0.04-1.52,1.16-2.792,2.688-2.832c0.048,0,0.096,0,0.144,0c1.488-0.04,2.728,1.128,2.768,2.616   C208.312,102.192,208.304,102.264,208.304,102.336z M203.24,134.336V109.36h4.544v24.992L203.24,134.336z"/>
	<path style="fill:#415E72;" d="M215.312,117.52c0-3.2-0.104-5.784-0.2-8.16h4.08l0.208,4.288h0.104c1.832-3.136,5.248-5,8.88-4.856   c6.248,0.36,11.016,5.72,10.648,11.968c-0.016,0.248-0.04,0.496-0.064,0.736c0.888,6.472-3.64,12.44-10.12,13.328   c-0.416,0.056-0.824,0.088-1.24,0.104c-3.08,0.136-6-1.352-7.696-3.928h-0.104v13.6h-4.496V117.52z M219.816,124.184   c0.008,0.624,0.08,1.248,0.2,1.856c0.776,3.128,3.592,5.32,6.816,5.32c4.8,0,7.592-3.928,7.592-9.656   c0-5.008-2.632-9.296-7.44-9.296c-3.296,0.088-6.112,2.392-6.864,5.6c-0.184,0.6-0.28,1.224-0.304,1.856L219.816,124.184z"/>
	<path style="fill:#415E72;" d="M250.144,102.184v7.2h6.504v3.416h-6.504v13.48c0,3.096,0.872,4.848,3.408,4.848   c0.888,0.008,1.768-0.088,2.632-0.304l0.208,3.408c-1.288,0.448-2.64,0.656-4,0.616c-1.832,0.112-3.624-0.584-4.904-1.904   c-1.376-1.872-2-4.192-1.752-6.504V112.8h-3.872v-3.44h3.872v-5.992L250.144,102.184z"/>
	<path style="fill:#415E72;" d="M285.344,122.064l-24,12.288v-3.56l20.344-10.12v-0.112l-20.344-10.12v-3.56l24,12.288V122.064z"/>
	<path style="fill:#415E72;" d="M106.2,392.8l24-12.336V384l-20.184,10.12v0.112l20.184,10.12v3.56l-24-12.344V392.8z"/>
	<path style="fill:#415E72;" d="M133.496,409.992l14.4-37.432h3.512l-14.464,37.432H133.496z"/>
	<path style="fill:#415E72;" d="M154.544,402.456c2.432,1.464,5.216,2.248,8.056,2.272c4.592,0,7.28-2.4,7.28-5.936   c0-3.248-1.856-5.112-6.552-6.92c-5.68-2.008-9.192-4.952-9.192-9.856c0.272-5.528,4.968-9.784,10.496-9.512   c0.256,0.016,0.512,0.032,0.76,0.064c2.672-0.096,5.32,0.496,7.696,1.704l-1.24,3.664c-2.032-1.096-4.304-1.664-6.608-1.656   c-4.752,0-6.552,2.84-6.552,5.216c0,3.248,2.12,4.848,6.912,6.712c5.888,2.272,8.88,5.12,8.88,10.224   c0,5.368-4,10.016-12.184,10.016c-3.096,0.04-6.152-0.72-8.872-2.216L154.544,402.456z"/>
	<path style="fill:#415E72;" d="M198.576,407c-2.264,1.008-4.72,1.504-7.2,1.448c-6.552,0.336-12.128-4.696-12.464-11.248   c-0.024-0.504-0.016-1.008,0.016-1.504c-0.336-7.008,5.064-12.968,12.072-13.304c0.464-0.024,0.92-0.016,1.384,0.008   c2.168-0.024,4.312,0.416,6.296,1.288l-1.032,3.512c-1.624-0.848-3.44-1.256-5.264-1.184c-5.192,0.288-9.168,4.736-8.872,9.928   c0.264,4.72,3.992,8.52,8.712,8.864c1.936,0.016,3.848-0.408,5.6-1.232L198.576,407z"/>
	<path style="fill:#415E72;" d="M203.864,390.736c0-2.944-0.048-5.48-0.2-7.8h4l0.16,4.904H208c0.872-3.136,3.672-5.344,6.92-5.48   c0.432,0,0.864,0.048,1.288,0.16v4.288c-0.504-0.112-1.024-0.168-1.544-0.16c-3.208,0.144-5.816,2.632-6.096,5.832   c-0.128,0.696-0.2,1.408-0.208,2.12v13.32h-4.496V390.736z"/>
	<path style="fill:#415E72;" d="M226,375.92c-0.168,1.544-1.552,2.664-3.096,2.504c-1.32-0.144-2.36-1.184-2.504-2.504   c-0.04-1.52,1.16-2.792,2.688-2.832c0.048,0,0.096,0,0.144,0c1.488-0.04,2.728,1.128,2.768,2.616   C226.008,375.776,226,375.848,226,375.92z M220.936,407.92v-24.976h4.544v24.992L220.936,407.92z"/>
	<path style="fill:#415E72;" d="M233.008,391.096c0-3.2-0.104-5.784-0.2-8.16h4.08l0.208,4.288h0.104   c1.832-3.136,5.248-5,8.88-4.856c6.248,0.36,11.016,5.72,10.648,11.968c-0.016,0.248-0.04,0.496-0.064,0.736   c0.888,6.472-3.64,12.44-10.12,13.328c-0.416,0.056-0.824,0.088-1.24,0.104c-3.08,0.136-6-1.352-7.696-3.928h-0.112v13.6H233   L233.008,391.096z M237.504,397.76c0.016,0.624,0.08,1.248,0.208,1.856c0.776,3.128,3.592,5.32,6.816,5.32   c4.8,0,7.592-3.928,7.592-9.656c0-5.008-2.632-9.296-7.44-9.296c-3.296,0.088-6.112,2.392-6.864,5.6   c-0.184,0.6-0.288,1.224-0.312,1.856L237.504,397.76z"/>
	<path style="fill:#415E72;" d="M267.832,375.76v7.2h6.504v3.44h-6.504v13.48c0,3.096,0.872,4.848,3.408,4.848   c0.888,0.008,1.768-0.088,2.632-0.304l0.208,3.408c-1.288,0.448-2.64,0.656-4,0.616c-1.832,0.112-3.624-0.584-4.904-1.904   c-1.392-1.88-2.032-4.216-1.776-6.544v-13.6h-3.88v-3.464h3.872v-5.992L267.832,375.76z"/>
	<path style="fill:#415E72;" d="M303.04,395.64l-24,12.288v-3.56l20.344-10.12v-0.112L279.08,384v-3.56l24,12.288L303.04,395.64z"/>
</g>
<g>
</g>
<g>
</g>
<g>
</g>
<g>
</g>
<g>
</g>
<g>
</g>
<g>
</g>
<g>
</g>
<g>
</g>
<g>
</g>
<g>
</g>
<g>
</g>
<g>
</g>
<g>
</g>
<g>
</g>
</svg>
