<?xml version="1.0" encoding="iso-8859-1"?>
<!-- Generator: Adobe Illustrator 19.0.0, SVG Export Plug-In . SVG Version: 6.00 Build 0)  -->
<svg xmlns="http://www.w3.org/2000/svg" xmlns:xlink="http://www.w3.org/1999/xlink" version="1.1" id="Layer_1" x="0px" y="0px" viewBox="0 0 512 512" style="enable-background:new 0 0 512 512;" xml:space="preserve">
<path style="fill:#FFFFFF;" d="M41.368,119.44h429.264c20.64,0,37.368,16.728,37.368,37.368v9.28  c0,20.64-16.728,37.368-37.368,37.368H41.368C20.728,203.456,4,186.728,4,166.088v-9.28C4,136.168,20.728,119.44,41.368,119.44z"/>
<path style="fill:#AAC1CE;" d="M470.632,123.44c18.416,0.024,33.344,14.952,33.368,33.368v9.28  c-0.024,18.416-14.952,33.344-33.368,33.368H41.368C22.952,199.432,8.024,184.504,8,166.088v-9.28  c0.024-18.416,14.952-33.344,33.368-33.368H470.632 M470.632,115.44H41.368C18.52,115.44,0,133.96,0,156.8v9.28  c0.008,22.84,18.528,41.36,41.368,41.36h429.264c22.84,0,41.36-18.52,41.368-41.36v-9.28C512,133.96,493.48,115.44,470.632,115.44  L470.632,115.44z"/>
<g>
	<path style="fill:#25B6D2;" d="M41.552,142.744c2.856-0.504,5.752-0.744,8.648-0.72c3.6-0.368,7.216,0.648,10.096,2.84   c1.824,1.712,2.824,4.128,2.744,6.624c0.048,4.104-2.64,7.744-6.576,8.904v0.168c2.848,1.264,4.8,3.944,5.128,7.04   c0.608,3.272,1.512,6.488,2.696,9.6h-4.664c-1.048-2.696-1.824-5.488-2.336-8.336c-1.032-4.8-2.888-6.624-6.984-6.776h-4.24V177.2   h-4.512V142.744z M46.056,158.632h4.6c4.8,0,7.872-2.64,7.872-6.624c0-4.496-3.264-6.472-8-6.512   c-1.496-0.04-2.992,0.096-4.456,0.416L46.056,158.632z"/>
	<path style="fill:#25B6D2;" d="M72,165.48c-0.392,4.4,2.856,8.288,7.256,8.68c0.432,0.04,0.872,0.04,1.304,0.008   c2.376,0.072,4.744-0.368,6.936-1.296l0.8,3.264c-2.64,1.096-5.472,1.616-8.328,1.544c-6.408,0.408-11.936-4.464-12.344-10.88   c-0.04-0.584-0.032-1.168,0.024-1.744c-0.752-6.672,4.048-12.68,10.72-13.432c0.344-0.04,0.688-0.064,1.032-0.072   c5.864,0.112,10.528,4.952,10.416,10.808c-0.008,0.328-0.024,0.664-0.064,0.992c-0.008,0.712-0.064,1.424-0.16,2.128L72,165.48   L72,165.48z M85.352,162.216c0.512-3.544-1.952-6.824-5.496-7.336c-0.272-0.04-0.544-0.064-0.816-0.064   c-3.912,0.256-6.976,3.472-7.04,7.4H85.352z"/>
	<path style="fill:#25B6D2;" d="M94.72,172.52c1.808,1.128,3.88,1.752,6.008,1.816c3.312,0,4.856-1.656,4.856-3.728   s-1.288-3.368-4.656-4.608c-4.496-1.6-6.624-4.088-6.624-7.096c0.184-4.264,3.784-7.576,8.048-7.392c0.2,0.008,0.4,0.024,0.6,0.048   c2.152-0.024,4.272,0.512,6.16,1.544l-1.144,3.312c-1.544-0.944-3.32-1.448-5.128-1.448c-2.688,0-4.184,1.552-4.184,3.416   c0,2.072,1.504,3,4.76,4.24c4.352,1.656,6.568,3.832,6.568,7.56c0,4.4-3.416,7.504-9.368,7.504c-2.456,0.04-4.88-0.544-7.04-1.704   L94.72,172.52z"/>
	<path style="fill:#25B6D2;" d="M118.4,165.48c-0.392,4.4,2.856,8.288,7.256,8.68c0.432,0.04,0.872,0.04,1.304,0.008   c2.376,0.072,4.744-0.368,6.936-1.296l0.8,3.264c-2.64,1.096-5.48,1.616-8.336,1.544c-6.408,0.408-11.928-4.464-12.336-10.864   c-0.04-0.584-0.032-1.176,0.024-1.76c-0.744-6.672,4.064-12.688,10.736-13.432c0.336-0.04,0.68-0.064,1.016-0.072   c5.864,0.112,10.528,4.952,10.416,10.808c-0.008,0.328-0.024,0.664-0.064,0.992c-0.008,0.712-0.064,1.424-0.16,2.128L118.4,165.48   L118.4,165.48z M131.76,162.216c0.504-3.544-1.96-6.832-5.512-7.336c-0.272-0.04-0.536-0.056-0.808-0.064   c-3.888,0.288-6.92,3.496-6.984,7.4H131.76z"/>
	<path style="fill:#25B6D2;" d="M147.2,144.936v7.2h6.52v3.464h-6.52v13.504c0,3.112,0.88,4.864,3.416,4.864   c0.888,0.008,1.776-0.088,2.64-0.304l0.2,3.416c-1.288,0.448-2.64,0.656-4,0.616c-1.84,0.104-3.64-0.6-4.92-1.928   c-1.384-1.88-2.008-4.2-1.76-6.52v-13.656h-3.88v-3.464h3.88v-6.008L147.2,144.936z"/>
	<path style="fill:#25B6D2;" d="M169.992,142.704c2.856-0.464,5.752-0.688,8.648-0.672c3.504-0.272,6.992,0.76,9.784,2.896   c2.048,1.864,3.16,4.536,3.056,7.296c0.136,2.744-0.832,5.432-2.696,7.456c-2.88,2.672-6.728,4.056-10.656,3.832   c-1.216,0.04-2.432-0.064-3.624-0.312v13.976H170L169.992,142.704z M174.496,159.504c1.224,0.272,2.472,0.392,3.728,0.36   c5.44,0,8.752-2.64,8.752-7.456c0-4.6-3.264-6.832-8.232-6.832c-1.424-0.04-2.848,0.08-4.24,0.36L174.496,159.504z"/>
	<path style="fill:#25B6D2;" d="M209.88,177.176l-0.36-3.16h-0.16c-1.808,2.408-4.656,3.792-7.664,3.728   c-3.928,0.288-7.352-2.664-7.64-6.6c-0.016-0.2-0.024-0.4-0.016-0.6c0-6.056,5.384-9.368,15.064-9.312v-0.52   c0.368-2.832-1.632-5.424-4.464-5.792c-0.408-0.056-0.824-0.056-1.232-0.008c-2.304,0.008-4.56,0.656-6.52,1.864l-1.032-3   c2.48-1.496,5.328-2.264,8.224-2.224c7.664,0,9.52,5.224,9.52,10.24v9.376c-0.032,2.008,0.104,4.016,0.416,6L209.88,177.176z    M209.208,164.376c-4.968-0.112-10.608,0.8-10.608,5.64c-0.2,2.2,1.424,4.144,3.624,4.344c0.224,0.016,0.448,0.024,0.672,0   c2.712,0.072,5.16-1.624,6.056-4.184c0.16-0.472,0.248-0.96,0.256-1.456L209.208,164.376L209.208,164.376z"/>
	<path style="fill:#25B6D2;" d="M220.32,172.52c1.808,1.128,3.88,1.752,6.008,1.816c3.312,0,4.856-1.656,4.856-3.728   s-1.288-3.368-4.656-4.608c-4.496-1.6-6.624-4.088-6.624-7.096c0.184-4.264,3.784-7.576,8.048-7.392c0.2,0.008,0.4,0.024,0.6,0.048   c2.152-0.024,4.272,0.512,6.16,1.544l-1.144,3.312c-1.544-0.944-3.32-1.448-5.128-1.448c-2.688,0-4.184,1.552-4.184,3.416   c0,2.072,1.504,3,4.76,4.24c4.352,1.656,6.568,3.832,6.568,7.56c0,4.4-3.416,7.504-9.368,7.504c-2.456,0.04-4.88-0.544-7.04-1.704   L220.32,172.52z"/>
	<path style="fill:#25B6D2;" d="M240.8,172.52c1.808,1.128,3.88,1.752,6.008,1.816c3.312,0,4.856-1.656,4.856-3.728   s-1.288-3.368-4.656-4.608c-4.496-1.6-6.624-4.088-6.624-7.096c0.184-4.264,3.784-7.576,8.048-7.392c0.2,0.008,0.4,0.024,0.6,0.048   c2.152-0.024,4.272,0.512,6.16,1.544l-1.144,3.312c-1.544-0.944-3.32-1.448-5.128-1.448c-2.688,0-4.184,1.552-4.184,3.416   c0,2.072,1.504,3,4.76,4.24c4.352,1.656,6.568,3.832,6.568,7.56c0,4.4-3.416,7.504-9.368,7.504c-2.456,0.04-4.88-0.544-7.04-1.704   L240.8,172.52z"/>
	<path style="fill:#25B6D2;" d="M263.72,152.128l3.312,12.728c0.72,2.8,1.392,5.384,1.856,8h0.16c0.568-2.536,1.4-5.232,2.224-7.92   l4.088-12.8h3.84l3.88,12.52c0.928,3,1.656,5.64,2.224,8.176h0.16c0.488-2.744,1.128-5.464,1.912-8.136l3.568-12.568h4.504   l-8.08,25.048H283.2l-3.832-11.952c-0.88-2.704-1.624-5.456-2.224-8.232h-0.104c-0.6,2.8-1.36,5.568-2.28,8.28l-4,11.904h-4.144   l-7.552-25.048L263.72,152.128z"/>
	<path style="fill:#25B6D2;" d="M322.128,164.44c0.592,6.736-4.392,12.672-11.128,13.264c-0.448,0.04-0.896,0.056-1.344,0.04   c-6.576,0.072-11.968-5.208-12.04-11.784c0-0.368,0.008-0.736,0.04-1.104c-0.592-6.728,4.392-12.664,11.12-13.248   c0.432-0.04,0.872-0.056,1.304-0.048c6.544-0.128,11.96,5.072,12.088,11.616C322.176,163.592,322.168,164.016,322.128,164.44z    M302.256,164.688c0,5.496,3.16,9.6,7.608,9.6s7.608-4.096,7.608-9.736c0-4.24-2.128-9.6-7.496-9.6   S302.256,159.936,302.256,164.688z"/>
	<path style="fill:#25B6D2;" d="M327.864,159.936c0-2.952-0.056-5.488-0.208-7.816h4l0.16,4.912H332   c0.872-3.144,3.672-5.36,6.928-5.488c0.44-0.008,0.872,0.048,1.296,0.152v4.296c-0.512-0.112-1.032-0.168-1.552-0.16   c-3.216,0.136-5.84,2.64-6.112,5.848c-0.128,0.704-0.192,1.416-0.2,2.128v13.352h-4.496L327.864,159.936z"/>
	<path style="fill:#25B6D2;" d="M365.896,140.424v30.28c0,2.224,0.048,4.76,0.2,6.472h-4.088l-0.208-4.344h-0.104   c-1.672,3.136-4.984,5.048-8.536,4.912c-6.296-0.352-11.12-5.744-10.776-12.04c0.016-0.232,0.032-0.464,0.064-0.696   c-0.816-6.576,3.856-12.568,10.432-13.384c0.256-0.032,0.512-0.056,0.768-0.072c3.032-0.184,5.92,1.28,7.56,3.832h0.104v-14.96   H365.896z M361.344,162.32c0.008-0.64-0.064-1.288-0.208-1.912c-0.664-3.088-3.408-5.296-6.568-5.28   c-4.712,0-7.504,4.144-7.504,9.68c0,5.072,2.488,9.256,7.408,9.256c3.224-0.008,6.008-2.272,6.672-5.432   c0.152-0.648,0.224-1.304,0.208-1.968L361.344,162.32z"/>
	<path style="fill:#25B6D2;" d="M376.952,167.288l-0.104-1.352c-0.224-3.296,0.936-6.544,3.2-8.952   c2.024-1.848,3.304-4.368,3.616-7.088c0-2.64-1.656-4.4-4.912-4.456c-1.864-0.008-3.688,0.552-5.224,1.6l-1.232-3.272   c2.216-1.384,4.784-2.104,7.4-2.072c4.184-0.552,8.032,2.392,8.584,6.584c0.048,0.344,0.064,0.68,0.064,1.024   c-0.32,3.448-1.912,6.656-4.456,9c-2,2.016-3.064,4.776-2.952,7.608l0.056,1.352L376.952,167.288z M375.808,174.528   c-0.104-1.688,1.176-3.144,2.864-3.248c0.08-0.008,0.168-0.008,0.248-0.008c1.768-0.048,3.24,1.344,3.288,3.112   s-1.344,3.24-3.112,3.288c-1.768,0.048-3.24-1.344-3.288-3.112C375.808,174.544,375.808,174.536,375.808,174.528z"/>
</g>
<rect x="123.888" y="304.552" style="fill:#32BEA6;" width="264.24" height="92.008"/>
<g>
	<path style="fill:#FFFFFF;" d="M181.408,362.336c2.44,1.464,5.232,2.248,8.08,2.272c4.6,0,7.296-2.4,7.296-5.952   c0-3.256-1.864-5.128-6.576-6.928c-5.688-2.024-9.208-4.968-9.208-9.888c0.272-5.536,4.976-9.808,10.52-9.536   c0.256,0.016,0.512,0.032,0.76,0.064c2.68-0.096,5.336,0.496,7.72,1.712l-1.24,3.672c-2.032-1.096-4.312-1.664-6.624-1.656   c-4.76,0-6.568,2.84-6.568,5.224c0,3.256,2.128,4.864,6.936,6.728c5.896,2.28,8.896,5.128,8.896,10.248   c0,5.384-4,10.04-12.208,10.04c-3.112,0.04-6.176-0.728-8.904-2.224L181.408,362.336z"/>
	<path style="fill:#FFFFFF;" d="M228.344,360.992c0,2.592,0.048,4.864,0.2,6.832h-4l-0.256-4.088h-0.104   c-1.72,2.928-4.88,4.712-8.28,4.656c-3.928,0-8.64-2.168-8.64-10.976v-14.64h4.552v13.872c0,4.8,1.448,8,5.6,8   c2.656-0.04,5.024-1.68,6.008-4.144c0.28-0.744,0.416-1.536,0.416-2.328v-15.4h4.552L228.344,360.992z"/>
	<path style="fill:#FFFFFF;" d="M235.672,367.824c0.104-1.712,0.208-4.24,0.208-6.472v-30.28h4.504v15.736h0.104   c1.768-3,5.056-4.776,8.536-4.6c6.2,0.312,10.968,5.592,10.656,11.792c-0.016,0.336-0.048,0.672-0.096,1.008   c0.84,6.52-3.768,12.488-10.288,13.328c-0.304,0.04-0.608,0.064-0.912,0.08c-3.48,0.192-6.752-1.656-8.384-4.736h-0.16l-0.2,4.144   L235.672,367.824z M240.384,357.784c0.016,0.56,0.08,1.112,0.2,1.656c0.784,3.136,3.6,5.336,6.832,5.328   c4.76,0,7.608-3.88,7.608-9.6c0-5.024-2.584-9.32-7.456-9.32c-3.32,0.064-6.176,2.368-6.936,5.6   c-0.152,0.608-0.232,1.232-0.256,1.856L240.384,357.784z"/>
	<path style="fill:#FFFFFF;" d="M265.312,349.552c0-2.584-0.056-4.704-0.208-6.784h4l0.208,4h0.16   c1.536-2.904,4.584-4.688,7.864-4.6c3.2-0.032,6.056,1.984,7.088,5.016h0.104c0.696-1.272,1.648-2.376,2.8-3.256   c1.584-1.216,3.544-1.84,5.536-1.76c3.312,0,8.224,2.168,8.224,10.864v14.752h-4.448V353.64c0-4.8-1.76-7.712-5.44-7.712   c-2.488,0.104-4.64,1.768-5.384,4.144c-0.232,0.736-0.36,1.504-0.36,2.272v15.48H281v-15.008c0-4-1.76-6.88-5.224-6.88   c-3.432,0.408-6.016,3.32-6.008,6.776v15.12h-4.448L265.312,349.552z"/>
	<path style="fill:#FFFFFF;" d="M313.52,335.768c-0.08,1.56-1.416,2.752-2.968,2.672c-1.44-0.08-2.592-1.232-2.672-2.672   c-0.04-1.536,1.168-2.808,2.704-2.848c0.048,0,0.088,0,0.136,0c1.496-0.056,2.744,1.112,2.8,2.6   C313.528,335.6,313.528,335.68,313.52,335.768z M308.448,367.856v-25.08H313v25.056L308.448,367.856z"/>
	<path style="fill:#FFFFFF;" d="M326.04,335.592v7.2h6.52v3.472h-6.52v13.504c0,3.104,0.872,4.856,3.416,4.856   c0.888,0.016,1.776-0.088,2.64-0.312l0.208,3.424c-1.288,0.448-2.64,0.656-4,0.616c-1.84,0.112-3.64-0.584-4.92-1.912   c-1.384-1.88-2.008-4.2-1.76-6.52v-13.672h-3.88v-3.472h3.856v-6L326.04,335.592z"/>
</g>
<polygon style="fill:#88D8C9;" points="123.888,362.76 123.888,304.528 182.12,304.528 "/>
<g>
</g>
<g>
</g>
<g>
</g>
<g>
</g>
<g>
</g>
<g>
</g>
<g>
</g>
<g>
</g>
<g>
</g>
<g>
</g>
<g>
</g>
<g>
</g>
<g>
</g>
<g>
</g>
<g>
</g>
</svg>
