<?xml version="1.0" encoding="iso-8859-1"?>
<!-- Generator: Adobe Illustrator 19.0.0, SVG Export Plug-In . SVG Version: 6.00 Build 0)  -->
<svg xmlns="http://www.w3.org/2000/svg" xmlns:xlink="http://www.w3.org/1999/xlink" version="1.1" id="Layer_1" x="0px" y="0px" viewBox="0 0 512 512" style="enable-background:new 0 0 512 512;" xml:space="preserve">
<g>
	<path style="fill:#FFFFFF;" d="M183.48,265.932c0,8.472-3.144,13.152-8.664,13.152c-4.864,0-8.168-4.56-8.232-12.8   s3.6-12.952,8.656-12.952C180.536,253.324,183.48,258.004,183.48,265.932z M169.952,266.316c0,6.48,2,10.16,5.064,10.16   c3.456,0,5.104-4,5.104-10.4c0-6.136-1.6-10.16-5.064-10.16C172.104,255.932,169.952,259.532,169.952,266.316z"/>
	<path style="fill:#FFFFFF;" d="M186.88,263.172c-0.104-1.256,0.832-2.368,2.088-2.472c1.256-0.104,2.368,0.832,2.472,2.088   c0.008,0.128,0.008,0.256,0,0.384c0,1.256-1.016,2.28-2.28,2.28C187.904,265.452,186.88,264.436,186.88,263.172L186.88,263.172z    M186.88,276.7c-0.104-1.256,0.832-2.368,2.088-2.472c1.256-0.104,2.368,0.832,2.472,2.088c0.008,0.128,0.008,0.256,0,0.384   c0,1.256-1.016,2.28-2.28,2.28C187.904,278.98,186.88,277.964,186.88,276.7L186.88,276.7z"/>
	<path style="fill:#FFFFFF;" d="M211.12,265.932c0,8.472-3.144,13.152-8.664,13.152c-4.864,0-8.168-4.56-8.232-12.8   s3.6-12.952,8.656-12.952C208.136,253.324,211.12,258.004,211.12,265.932z M197.592,266.316c0,6.48,1.992,10.16,5.064,10.16   c3.456,0,5.104-4,5.104-10.4c0-6.136-1.6-10.16-5.064-10.16C199.736,255.932,197.584,259.532,197.592,266.316L197.592,266.316z"/>
	<path style="fill:#FFFFFF;" d="M230.808,265.932c0,8.472-3.144,13.152-8.664,13.152c-4.864,0-8.168-4.56-8.232-12.8   s3.6-12.952,8.656-12.952C227.816,253.324,230.808,258.004,230.808,265.932z M217.28,266.316c0,6.48,1.992,10.16,5.064,10.16   c3.456,0,5.104-4,5.104-10.4c0-6.136-1.6-10.16-5.064-10.16c-2.96,0.016-5.112,3.616-5.112,10.4H217.28z"/>
	<rect x="4" y="365.94" style="fill:#FFFFFF;" width="504" height="94.328"/>
</g>
<path style="fill:#AAC1CE;" d="M504,369.94v86.328H8V369.94H504 M512,361.94H0v102.328h512V361.94z"/>
<rect y="361.924" style="fill:#25B6D2;" width="102.336" height="102.336"/>
<polygon style="fill:#FFFFFF;" points="78.04,414.116 36.872,390.348 36.872,437.884 "/>
<rect x="151.592" y="408.084" style="fill:#415E72;" width="232.32" height="8"/>
<circle style="fill:#25B6D2;" cx="200.24" cy="413.588" r="16.576"/>
<g>
	<rect x="436.08" y="389.54" style="fill:#415E72;" width="8" height="45.096"/>
	<rect x="464.16" y="389.54" style="fill:#415E72;" width="8" height="45.096"/>
</g>
<circle style="fill:#FFFFFF;" cx="256" cy="172.628" r="120.88"/>
<g>
	<path style="fill:#E04F5F;" d="M256,297.524c-68.976,0-124.896-55.92-124.896-124.896S187.024,47.732,256,47.732   s124.896,55.92,124.896,124.896l0,0C380.824,241.572,324.944,297.452,256,297.524z M256,55.732   c-64.56,0-116.896,52.336-116.896,116.896S191.44,289.524,256,289.524s116.896-52.336,116.896-116.896l0,0   C372.824,108.1,320.528,55.812,256,55.74V55.732z"/>
	<path style="fill:#E04F5F;" d="M215.736,235.476V114.452l104.8,60.512L215.736,235.476z M223.736,128.276v93.336l80.8-46.648   L223.736,128.276z"/>
</g>
<g>
</g>
<g>
</g>
<g>
</g>
<g>
</g>
<g>
</g>
<g>
</g>
<g>
</g>
<g>
</g>
<g>
</g>
<g>
</g>
<g>
</g>
<g>
</g>
<g>
</g>
<g>
</g>
<g>
</g>
</svg>
