<?xml version="1.0" encoding="iso-8859-1"?>
<!-- Generator: Adobe Illustrator 19.0.0, SVG Export Plug-In . SVG Version: 6.00 Build 0)  -->
<svg xmlns="http://www.w3.org/2000/svg" xmlns:xlink="http://www.w3.org/1999/xlink" version="1.1" id="Layer_1" x="0px" y="0px" viewBox="0 0 512 512" style="enable-background:new 0 0 512 512;" xml:space="preserve">
<circle style="fill:#FFFFFF;" cx="173.488" cy="75.096" r="71.096"/>
<path style="fill:#E04F5F;" d="M173.496,8c37.056,0.008,67.088,30.056,67.08,67.112s-30.056,67.088-67.112,67.08  c-37.048-0.008-67.08-30.048-67.08-67.096C106.448,38.056,136.464,8.048,173.496,8 M173.496,0C132.024,0,98.4,33.624,98.4,75.096  s33.624,75.096,75.096,75.096s75.096-33.624,75.096-75.096S214.976,0,173.496,0L173.496,0z"/>
<path style="fill:#FFFFFF;" d="M25.272,320.728v-82.256c0-59.048,56.56-66.088,69.6-66.928l68.8,149.184L25.272,320.728z"/>
<path style="fill:#E04F5F;" d="M92.432,175.776l65.024,140.952H29.272v-78.256c0-51.952,47.2-61.088,63.144-62.696 M97.376,167.44  c0,0-76.112,1.016-76.112,71.032v86.264h148.68L97.384,167.44L97.376,167.44L97.376,167.44z"/>
<path style="fill:#FFFFFF;" d="M183.296,320.728l68.8-149.176c13.04,0.856,69.6,8,69.6,66.92v82.256H183.296z"/>
<path style="fill:#E04F5F;" d="M254.568,175.776c15.928,1.6,63.144,10.752,63.144,62.696v78.256h-128.12l65.024-140.952   M249.592,167.44l-72.56,157.296H325.72v-86.264c0-70.024-76.112-71.032-76.112-71.032H249.592z"/>
<polygon style="fill:#32BEA6;" points="173.496,167.44 121.232,167.44 173.496,283.128 225.76,167.44 "/>
<polygon style="fill:#CFDCE5;" points="158.936,512 265.976,483.992 490.704,259.264 411.664,180.24 186.936,404.968 "/>
<g>
	<polyline style="fill:#415E72;" points="174.288,453.304 158.936,512 217.624,496.64  "/>
	
		<rect x="401.318" y="207.809" transform="matrix(0.7071 -0.7071 0.7071 0.7071 -67.165 365.227)" style="fill:#415E72;" width="11.936" height="111.759"/>
	
		<rect x="185.957" y="290.601" transform="matrix(0.7071 -0.7071 0.7071 0.7071 -149.9468 330.9577)" style="fill:#415E72;" width="277.141" height="111.759"/>
</g>
<rect x="390.403" y="189.07" transform="matrix(0.7071 -0.7071 0.7071 0.7071 -48.4242 372.9935)" style="fill:#E04F5F;" width="71.255" height="111.759"/>
<g style="opacity:0.25;">
	<polygon style="fill:#FFFFFF;" points="158.936,512 452.656,221.232 411.664,180.248 186.984,404.92  "/>
</g>
<g>
</g>
<g>
</g>
<g>
</g>
<g>
</g>
<g>
</g>
<g>
</g>
<g>
</g>
<g>
</g>
<g>
</g>
<g>
</g>
<g>
</g>
<g>
</g>
<g>
</g>
<g>
</g>
<g>
</g>
</svg>
