<?xml version="1.0" encoding="iso-8859-1"?>
<!-- Generator: Adobe Illustrator 19.0.0, SVG Export Plug-In . SVG Version: 6.00 Build 0)  -->
<svg xmlns="http://www.w3.org/2000/svg" xmlns:xlink="http://www.w3.org/1999/xlink" version="1.1" id="Layer_1" x="0px" y="0px" viewBox="0 0 512 512" style="enable-background:new 0 0 512 512;" xml:space="preserve">
<g>
	<polygon style="fill:#415E72;" points="49.057,409.394 1.69,436.744 49.057,464.087  "/>
	<polygon style="fill:#415E72;" points="464.505,409.394 511.872,436.744 464.505,464.087  "/>
	<rect x="40.735" y="428.772" style="fill:#415E72;" width="427.645" height="15.943"/>
</g>
<rect x="5.979" y="53.892" style="fill:#FFFFFF;" width="500.043" height="321.654"/>
<path style="fill:#E04F5F;" d="M500.043,59.871v309.657H11.957V59.871H500.043 M512,47.913H0v333.572h512V47.913z"/>
<path style="fill:#415E72;" d="M172.513,111.742h167.404l1.594,50.317h-7.087c-3.468-15.808-7.876-26.091-13.225-30.866  c-5.349-4.775-16.605-7.166-33.752-7.174h-16.477V275.55c0,11.407,1.786,18.478,5.357,21.212c7.246,3.699,15.29,5.548,23.421,5.389  v5.492h-86.316v-5.492c12.523-0.957,20.336-3.021,23.421-6.186c3.085-3.165,4.632-11.136,4.632-23.915V124.034h-16.637  c-16.382,0-27.542,2.36-33.481,7.087c-5.939,4.727-10.395,15.034-13.376,30.938h-7.23L172.513,111.742z"/>
<g>
</g>
<g>
</g>
<g>
</g>
<g>
</g>
<g>
</g>
<g>
</g>
<g>
</g>
<g>
</g>
<g>
</g>
<g>
</g>
<g>
</g>
<g>
</g>
<g>
</g>
<g>
</g>
<g>
</g>
</svg>
